G04*
G04 #@! TF.GenerationSoftware,Altium Limited,Altium Designer,21.1.1 (26)*
G04*
G04 Layer_Color=65535*
%FSLAX25Y25*%
%MOIN*%
G70*
G04*
G04 #@! TF.SameCoordinates,E5C8E51D-CC19-474A-A973-919B29290584*
G04*
G04*
G04 #@! TF.FilePolarity,Positive*
G04*
G01*
G75*
%ADD10C,0.01181*%
%ADD11C,0.02362*%
%ADD12C,0.00984*%
%ADD13C,0.01000*%
%ADD14C,0.00787*%
D10*
X208031Y167795D02*
X207986Y168798D01*
X207851Y169792D01*
X207628Y170770D01*
X207318Y171724D01*
X206924Y172646D01*
X206448Y173530D01*
X205895Y174367D01*
X205270Y175151D01*
X204577Y175876D01*
X203821Y176536D01*
X203010Y177126D01*
X202148Y177641D01*
X201244Y178076D01*
X200305Y178428D01*
X199338Y178695D01*
X198351Y178874D01*
X197352Y178964D01*
X196349D01*
X195350Y178874D01*
X194362Y178695D01*
X193395Y178428D01*
X192456Y178076D01*
X191552Y177641D01*
X190691Y177126D01*
X189880Y176536D01*
X189124Y175876D01*
X188431Y175151D01*
X187805Y174367D01*
X187253Y173530D01*
X186777Y172646D01*
X186383Y171724D01*
X186073Y170770D01*
X185850Y169792D01*
X185715Y168798D01*
X185670Y167795D01*
X185715Y166793D01*
X185850Y165799D01*
X186073Y164821D01*
X186383Y163867D01*
X186777Y162944D01*
X187253Y162061D01*
X187805Y161224D01*
X188431Y160439D01*
X189124Y159714D01*
X189880Y159054D01*
X190691Y158465D01*
X191552Y157950D01*
X192456Y157515D01*
X193395Y157162D01*
X194362Y156895D01*
X195350Y156716D01*
X196349Y156626D01*
X197352D01*
X198351Y156716D01*
X199338Y156895D01*
X200305Y157162D01*
X201244Y157515D01*
X202148Y157950D01*
X203010Y158465D01*
X203821Y159054D01*
X204577Y159714D01*
X205270Y160439D01*
X205895Y161224D01*
X206448Y162061D01*
X206924Y162944D01*
X207318Y163867D01*
X207628Y164821D01*
X207851Y165799D01*
X207986Y166793D01*
X208031Y167795D01*
X-185670Y167795D02*
X-185715Y168798D01*
X-185850Y169792D01*
X-186073Y170770D01*
X-186383Y171724D01*
X-186777Y172646D01*
X-187253Y173530D01*
X-187805Y174367D01*
X-188431Y175151D01*
X-189124Y175876D01*
X-189880Y176536D01*
X-190691Y177126D01*
X-191552Y177641D01*
X-192456Y178076D01*
X-193395Y178428D01*
X-194362Y178695D01*
X-195350Y178874D01*
X-196349Y178964D01*
X-197352D01*
X-198351Y178874D01*
X-199338Y178695D01*
X-200305Y178428D01*
X-201245Y178076D01*
X-202148Y177641D01*
X-203010Y177126D01*
X-203821Y176536D01*
X-204577Y175876D01*
X-205270Y175151D01*
X-205895Y174367D01*
X-206448Y173530D01*
X-206924Y172646D01*
X-207318Y171724D01*
X-207628Y170770D01*
X-207851Y169792D01*
X-207986Y168798D01*
X-208031Y167795D01*
X-207986Y166793D01*
X-207851Y165799D01*
X-207628Y164821D01*
X-207318Y163867D01*
X-206924Y162944D01*
X-206448Y162061D01*
X-205895Y161224D01*
X-205270Y160439D01*
X-204577Y159714D01*
X-203821Y159054D01*
X-203010Y158465D01*
X-202148Y157950D01*
X-201245Y157515D01*
X-200305Y157162D01*
X-199338Y156895D01*
X-198351Y156716D01*
X-197352Y156626D01*
X-196349D01*
X-195350Y156716D01*
X-194363Y156895D01*
X-193395Y157162D01*
X-192456Y157515D01*
X-191552Y157950D01*
X-190691Y158465D01*
X-189880Y159054D01*
X-189124Y159714D01*
X-188431Y160439D01*
X-187805Y161224D01*
X-187253Y162061D01*
X-186777Y162944D01*
X-186383Y163867D01*
X-186073Y164821D01*
X-185850Y165799D01*
X-185715Y166793D01*
X-185670Y167795D01*
D11*
X1181Y207151D02*
X736Y208074D01*
X-263Y208302D01*
X-1064Y207663D01*
Y206638D01*
X-263Y205999D01*
X736Y206227D01*
X1181Y207151D01*
D12*
X-1178Y218843D02*
X-1916Y219269D01*
Y218417D01*
X-1178Y218843D01*
D13*
X24500Y3256D02*
Y27453D01*
X-24500Y3256D02*
Y27453D01*
Y3256D02*
X24500D01*
X-24500Y27453D02*
X24500D01*
X-188342Y261922D02*
X-139912Y269372D01*
X-192022Y285837D02*
X-143591Y293288D01*
X-139912Y269372D01*
X-192022Y285837D02*
X-188342Y261922D01*
X231191Y-110558D02*
X286198Y-131894D01*
X219451Y-140826D02*
X274458Y-162162D01*
X219451Y-140826D02*
X231191Y-110558D01*
X274458Y-162162D02*
X286198Y-131894D01*
X139912Y269372D02*
X143591Y293288D01*
X188342Y261922D02*
X192022Y285837D01*
X143591Y293288D02*
X192022Y285837D01*
X139912Y269372D02*
X188342Y261922D01*
X-109236Y271472D02*
Y277470D01*
X-106237D01*
X-105237Y276471D01*
Y274471D01*
X-106237Y273472D01*
X-109236D01*
X-103238Y277470D02*
Y271472D01*
X-101239Y273472D01*
X-99239Y271472D01*
Y277470D01*
X-97240Y271472D02*
Y277470D01*
X-94241D01*
X-93241Y276471D01*
Y274471D01*
X-94241Y273472D01*
X-97240D01*
X-95241D02*
X-93241Y271472D01*
X-207847Y193064D02*
Y199062D01*
X-204848D01*
X-203848Y198062D01*
Y196063D01*
X-204848Y195063D01*
X-207847D01*
X-198850Y199062D02*
X-200849D01*
X-201849Y198062D01*
Y194064D01*
X-200849Y193064D01*
X-198850D01*
X-197850Y194064D01*
Y198062D01*
X-198850Y199062D01*
X-195851D02*
X-191852D01*
X-193851D01*
Y193064D01*
X-185854D02*
X-189853D01*
X-185854Y197063D01*
Y198062D01*
X-186854Y199062D01*
X-188853D01*
X-189853Y198062D01*
X186460Y193458D02*
Y199456D01*
X189459D01*
X190459Y198456D01*
Y196457D01*
X189459Y195457D01*
X186460D01*
X195457Y199456D02*
X193458D01*
X192458Y198456D01*
Y194457D01*
X193458Y193458D01*
X195457D01*
X196457Y194457D01*
Y198456D01*
X195457Y199456D01*
X198456D02*
X202455D01*
X200455D01*
Y193458D01*
X204454D02*
X206453D01*
X205454D01*
Y199456D01*
X204454Y198456D01*
X-34851Y228282D02*
Y227283D01*
X-32852Y225283D01*
X-30852Y227283D01*
Y228282D01*
X-32852Y225283D02*
Y222284D01*
X-28853D02*
X-26854D01*
X-27853D01*
Y228282D01*
X-28853Y227283D01*
X223447Y-94118D02*
X221448D01*
X222448D01*
Y-99116D01*
X221448Y-100116D01*
X220448D01*
X219449Y-99116D01*
X225447Y-100116D02*
X227446D01*
X226447D01*
Y-94118D01*
X225447Y-95117D01*
X-19952Y58583D02*
X-20952Y59582D01*
X-22952D01*
X-23951Y58583D01*
Y57583D01*
X-22952Y56583D01*
X-20952D01*
X-19952Y55584D01*
Y54584D01*
X-20952Y53584D01*
X-22952D01*
X-23951Y54584D01*
X-17953Y59582D02*
Y53584D01*
X-15954Y55584D01*
X-13954Y53584D01*
Y59582D01*
X-11955Y58583D02*
X-10955Y59582D01*
X-8956D01*
X-7956Y58583D01*
Y57583D01*
X-8956Y56583D01*
X-9956D01*
X-8956D01*
X-7956Y55584D01*
Y54584D01*
X-8956Y53584D01*
X-10955D01*
X-11955Y54584D01*
X28466Y200637D02*
Y195638D01*
X29466Y194639D01*
X31465D01*
X32465Y195638D01*
Y200637D01*
X34464Y199637D02*
X35464Y200637D01*
X37463D01*
X38463Y199637D01*
Y198637D01*
X37463Y197638D01*
X36464D01*
X37463D01*
X38463Y196638D01*
Y195638D01*
X37463Y194639D01*
X35464D01*
X34464Y195638D01*
X-163311Y236801D02*
X-164451Y237637D01*
X-166428Y237333D01*
X-167264Y236193D01*
X-167112Y235205D01*
X-165972Y234369D01*
X-163995Y234673D01*
X-162855Y233837D01*
X-162703Y232849D01*
X-163539Y231709D01*
X-165515Y231405D01*
X-166656Y232241D01*
X-161487Y238093D02*
X-160575Y232165D01*
X-158903Y234445D01*
X-156623Y232773D01*
X-157535Y238701D01*
X-150695Y233685D02*
X-154647Y233077D01*
X-151303Y237637D01*
X-151455Y238625D01*
X-152595Y239461D01*
X-154571Y239157D01*
X-155407Y238017D01*
X155608Y236684D02*
X154771Y237824D01*
X152795Y238128D01*
X151655Y237292D01*
X151503Y236304D01*
X152339Y235164D01*
X154315Y234860D01*
X155152Y233720D01*
X155000Y232732D01*
X153859Y231896D01*
X151883Y232200D01*
X151047Y233340D01*
X157736Y237368D02*
X156824Y231440D01*
X159104Y233112D01*
X160776Y230832D01*
X161688Y236760D01*
X162752Y230528D02*
X164728Y230224D01*
X163740Y230376D01*
X164652Y236304D01*
X163512Y235468D01*
X29072Y219048D02*
Y225046D01*
X32071D01*
X33071Y224047D01*
Y222047D01*
X32071Y221048D01*
X29072D01*
X31071D02*
X33071Y219048D01*
X35070D02*
X37070D01*
X36070D01*
Y225046D01*
X35070Y224047D01*
X70648Y122582D02*
X68648D01*
X69648D01*
Y117584D01*
X68648Y116584D01*
X67649D01*
X66649Y117584D01*
X76646Y121583D02*
X75646Y122582D01*
X73647D01*
X72647Y121583D01*
Y120583D01*
X73647Y119583D01*
X75646D01*
X76646Y118584D01*
Y117584D01*
X75646Y116584D01*
X73647D01*
X72647Y117584D01*
X82644Y116584D02*
X78645D01*
X82644Y120583D01*
Y121583D01*
X81644Y122582D01*
X79645D01*
X78645Y121583D01*
X-165552Y122582D02*
X-167552D01*
X-166552D01*
Y117584D01*
X-167552Y116584D01*
X-168552D01*
X-169551Y117584D01*
X-159554Y121583D02*
X-160554Y122582D01*
X-162553D01*
X-163553Y121583D01*
Y120583D01*
X-162553Y119583D01*
X-160554D01*
X-159554Y118584D01*
Y117584D01*
X-160554Y116584D01*
X-162553D01*
X-163553Y117584D01*
X-157555Y116584D02*
X-155556D01*
X-156555D01*
Y122582D01*
X-157555Y121583D01*
D14*
X21860Y217871D02*
X22417Y218428D01*
X18659Y221073D02*
X19216Y221630D01*
X13356Y175147D02*
X19480Y169023D01*
X19341Y181132D02*
X25466Y175008D01*
X-101969Y263779D02*
Y267717D01*
Y263779D02*
X-100787D01*
X-101969Y267717D02*
X-100787D01*
X-100886Y260531D02*
X-100098D01*
X-100886Y256004D02*
X-100098D01*
X-5906Y156693D02*
X-1969D01*
Y157874D01*
X-5906Y156693D02*
Y157874D01*
X1280Y157776D02*
Y158563D01*
X5807Y157776D02*
Y158563D01*
X-15868Y196850D02*
X0Y180982D01*
Y212719D02*
X15868Y196850D01*
X0Y180982D02*
X15868Y196850D01*
X-15868D02*
X0Y212719D01*
M02*
