M48
;Layer_Color=9474304
;FILE_FORMAT=2:4
INCH,TZ
;TYPE=PLATED
T1F00S00C0.0118
T3F00S00C0.0300
T4F00S00C0.0394
T6F00S00C0.0591
%
T01
X-4173Y17598
X-1929Y21890
X433Y20354
X380Y19843
X787Y23300
X1614Y23346
X2047Y22835
T03
X-787Y7559
X787
X500Y11311
X-500
X-1500
Y12311
X-500
X500
X1500
Y11311
T04
X23699Y-10805
X24631Y-11167
X25564Y-11528
X26496Y-11890
X27428Y-12251
X28361Y-12613
X20669Y13780
X19685
X18701
X13091Y10925
Y9154
X10532
Y10925
X7776Y6890
Y5906
Y4921
X10827Y2106
X11811
X12795
X-10827
X-11811
X-12795
X-15846Y4921
Y5906
Y6890
X-13091Y9154
Y10925
X-10532
Y9154
X-18701Y13780
X-19685
X-20669
T06
X-1850Y4528
X0
X1850
X-14313Y25085
X-16142Y24803
X-17971Y24522
X14313Y25085
X16142Y24803
X17971Y24522
M30
