M48
;Layer_Color=9474304
;FILE_FORMAT=2:4
INCH,TZ
;TYPE=PLATED
T2F00S00C0.0236
T5F00S00C0.0472
%
G90
G05
T02
G00X14862Y3110
M15
G01Y3465
M16
G00X14862Y8346
M15
G01Y8701
M16
G00X8760Y8346
M15
G01Y8701
M16
G00X8760Y3110
M15
G01Y3465
M16
G00X-8760Y3110
M15
G01Y3465
M16
G00X-8760Y8346
M15
G01Y8701
M16
G00X-14862Y8346
M15
G01Y8701
M16
G00X-14862Y3110
M15
G01Y3465
M16
T05
G00X-21437Y16732
M15
G01X-21673
M16
G00X-17697Y16732
M15
G01X-17933
M16
G00X17933Y16732
M15
G01X17697
M16
G00X21673Y16732
M15
G01X21437
M16
M17
M30
