G04*
G04 #@! TF.GenerationSoftware,Altium Limited,Altium Designer,21.1.1 (26)*
G04*
G04 Layer_Color=8388736*
%FSLAX25Y25*%
%MOIN*%
G70*
G04*
G04 #@! TF.SameCoordinates,2E0BF697-75A6-4CC4-BED8-DE0F4DE65696*
G04*
G04*
G04 #@! TF.FilePolarity,Positive*
G04*
G01*
G75*
%ADD12C,0.01000*%
D12*
X-118110Y14173D02*
X-117117Y14184D01*
X-116125Y14217D01*
X-115134Y14272D01*
X-114144Y14349D01*
X-113155Y14448D01*
X-112170Y14568D01*
X-111187Y14710D01*
X-110208Y14874D01*
X-109232Y15060D01*
X-108261Y15267D01*
X-107295Y15496D01*
X-106334Y15746D01*
X-105379Y16017D01*
X-104430Y16309D01*
X-103488Y16622D01*
X-102552Y16956D01*
X-101625Y17310D01*
X-100706Y17685D01*
X-99795Y18080D01*
X-98893Y18496D01*
X-98000Y18931D01*
X-97117Y19385D01*
X-96245Y19860D01*
X-95383Y20353D01*
X-94533Y20865D01*
X-93694Y21396D01*
X-92866Y21945D01*
X-92052Y22513D01*
X-91250Y23098D01*
X-90461Y23701D01*
X-89685Y24322D01*
X-88924Y24959D01*
X-88177Y25613D01*
X-87444Y26283D01*
X-86727Y26970D01*
X-86025Y27672D01*
X-85338Y28389D01*
X-84668Y29122D01*
X-84014Y29869D01*
X-83377Y30630D01*
X-82756Y31406D01*
X-82153Y32195D01*
X-81568Y32997D01*
X-81000Y33811D01*
X-80451Y34639D01*
X-79920Y35478D01*
X-79408Y36328D01*
X-78915Y37190D01*
X-78440Y38062D01*
X-77986Y38945D01*
X-77551Y39838D01*
X-77135Y40740D01*
X-76740Y41651D01*
X-76366Y42570D01*
X-76011Y43498D01*
X-75677Y44433D01*
X-75364Y45375D01*
X-75072Y46324D01*
X-74801Y47279D01*
X-74551Y48240D01*
X-74322Y49207D01*
X-74115Y50178D01*
X-73930Y51153D01*
X-73765Y52132D01*
X-73623Y53115D01*
X-73503Y54101D01*
X-73404Y55089D01*
X-73327Y56079D01*
X-73272Y57070D01*
X-73239Y58062D01*
X-73228Y59055D01*
X-73239Y60048D01*
X-73272Y61040D01*
X-73327Y62032D01*
X-73404Y63022D01*
X-73503Y64010D01*
X-73623Y64995D01*
X-73765Y65978D01*
X-73930Y66957D01*
X-74115Y67933D01*
X-74322Y68904D01*
X-74551Y69870D01*
X-74801Y70831D01*
X-75072Y71786D01*
X-75364Y72735D01*
X-75677Y73678D01*
X-76011Y74613D01*
X-76366Y75540D01*
X-76740Y76460D01*
X-77136Y77371D01*
X-77551Y78273D01*
X-77986Y79165D01*
X-78440Y80048D01*
X-78915Y80920D01*
X-79408Y81782D01*
X-79920Y82633D01*
X-80451Y83472D01*
X-81001Y84299D01*
X-81568Y85114D01*
X-82153Y85916D01*
X-82756Y86704D01*
X-83377Y87480D01*
X-84014Y88241D01*
X-84668Y88988D01*
X-85338Y89721D01*
X-86025Y90438D01*
X-86727Y91141D01*
X-87444Y91827D01*
X-88177Y92497D01*
X-88924Y93151D01*
X-89685Y93789D01*
X-90461Y94409D01*
X-91250Y95012D01*
X-92052Y95597D01*
X-92866Y96165D01*
X-93694Y96714D01*
X-94533Y97245D01*
X-95383Y97757D01*
X-96245Y98251D01*
X-97117Y98725D01*
X-98000Y99180D01*
X-98893Y99615D01*
X-99795Y100030D01*
X-100706Y100425D01*
X-101625Y100800D01*
X-102552Y101154D01*
X-103488Y101488D01*
X-104430Y101801D01*
X-105379Y102094D01*
X-106334Y102365D01*
X-107295Y102614D01*
X-108261Y102843D01*
X-109232Y103050D01*
X-110208Y103236D01*
X-111187Y103400D01*
X-112170Y103542D01*
X-113156Y103663D01*
X-114144Y103761D01*
X-115134Y103838D01*
X-116125Y103893D01*
X-117117Y103926D01*
X-118110Y103937D01*
X-119103Y103926D01*
X-120096Y103893D01*
X-121087Y103838D01*
X-122077Y103761D01*
X-123065Y103663D01*
X-124050Y103542D01*
X-125033Y103400D01*
X-126013Y103236D01*
X-126988Y103050D01*
X-127959Y102843D01*
X-128925Y102614D01*
X-129886Y102365D01*
X-130842Y102093D01*
X-131790Y101801D01*
X-132733Y101488D01*
X-133668Y101154D01*
X-134596Y100800D01*
X-135515Y100425D01*
X-136426Y100030D01*
X-137328Y99615D01*
X-138220Y99180D01*
X-139103Y98725D01*
X-139976Y98251D01*
X-140837Y97757D01*
X-141688Y97245D01*
X-142527Y96714D01*
X-143354Y96165D01*
X-144169Y95597D01*
X-144971Y95012D01*
X-145760Y94409D01*
X-146535Y93789D01*
X-147297Y93151D01*
X-148044Y92497D01*
X-148776Y91827D01*
X-149494Y91141D01*
X-150196Y90438D01*
X-150882Y89721D01*
X-151552Y88988D01*
X-152207Y88241D01*
X-152844Y87480D01*
X-153464Y86704D01*
X-154067Y85916D01*
X-154653Y85114D01*
X-155220Y84299D01*
X-155769Y83472D01*
X-156300Y82633D01*
X-156813Y81782D01*
X-157306Y80920D01*
X-157780Y80048D01*
X-158235Y79165D01*
X-158670Y78272D01*
X-159085Y77371D01*
X-159480Y76460D01*
X-159855Y75540D01*
X-160210Y74613D01*
X-160543Y73677D01*
X-160856Y72735D01*
X-161149Y71786D01*
X-161420Y70831D01*
X-161670Y69870D01*
X-161898Y68904D01*
X-162105Y67933D01*
X-162291Y66957D01*
X-162455Y65978D01*
X-162597Y64995D01*
X-162718Y64010D01*
X-162817Y63022D01*
X-162893Y62032D01*
X-162948Y61040D01*
X-162981Y60048D01*
X-162992Y59055D01*
X-162981Y58062D01*
X-162948Y57070D01*
X-162893Y56078D01*
X-162817Y55088D01*
X-162718Y54100D01*
X-162597Y53115D01*
X-162455Y52132D01*
X-162291Y51153D01*
X-162105Y50177D01*
X-161898Y49206D01*
X-161670Y48240D01*
X-161420Y47279D01*
X-161149Y46324D01*
X-160856Y45375D01*
X-160543Y44433D01*
X-160209Y43497D01*
X-159855Y42570D01*
X-159480Y41650D01*
X-159085Y40740D01*
X-158670Y39838D01*
X-158235Y38945D01*
X-157780Y38062D01*
X-157306Y37190D01*
X-156813Y36328D01*
X-156300Y35478D01*
X-155769Y34638D01*
X-155220Y33811D01*
X-154652Y32996D01*
X-154067Y32195D01*
X-153464Y31406D01*
X-152844Y30630D01*
X-152206Y29869D01*
X-151552Y29122D01*
X-150882Y28389D01*
X-150196Y27672D01*
X-149494Y26970D01*
X-148776Y26283D01*
X-148044Y25613D01*
X-147296Y24959D01*
X-146535Y24321D01*
X-145760Y23701D01*
X-144971Y23098D01*
X-144169Y22513D01*
X-143354Y21945D01*
X-142527Y21396D01*
X-141688Y20865D01*
X-140837Y20353D01*
X-139975Y19860D01*
X-139103Y19385D01*
X-138220Y18931D01*
X-137328Y18496D01*
X-136426Y18080D01*
X-135515Y17685D01*
X-134595Y17310D01*
X-133668Y16956D01*
X-132733Y16622D01*
X-131790Y16309D01*
X-130841Y16017D01*
X-129886Y15746D01*
X-128925Y15496D01*
X-127959Y15267D01*
X-126988Y15060D01*
X-126012Y14874D01*
X-125033Y14710D01*
X-124050Y14568D01*
X-123065Y14447D01*
X-122077Y14349D01*
X-121087Y14272D01*
X-120095Y14217D01*
X-119103Y14184D01*
X-118110Y14173D01*
X118110Y103937D02*
X117117Y103926D01*
X116125Y103893D01*
X115134Y103838D01*
X114144Y103761D01*
X113155Y103663D01*
X112170Y103542D01*
X111187Y103400D01*
X110208Y103236D01*
X109232Y103050D01*
X108261Y102843D01*
X107295Y102614D01*
X106334Y102365D01*
X105379Y102093D01*
X104430Y101801D01*
X103488Y101488D01*
X102552Y101154D01*
X101625Y100800D01*
X100706Y100425D01*
X99795Y100030D01*
X98893Y99615D01*
X98000Y99180D01*
X97117Y98725D01*
X96245Y98251D01*
X95383Y97757D01*
X94533Y97245D01*
X93694Y96714D01*
X92866Y96165D01*
X92052Y95597D01*
X91250Y95012D01*
X90461Y94409D01*
X89685Y93789D01*
X88924Y93151D01*
X88177Y92497D01*
X87444Y91827D01*
X86727Y91141D01*
X86025Y90438D01*
X85338Y89721D01*
X84668Y88988D01*
X84014Y88241D01*
X83377Y87480D01*
X82756Y86704D01*
X82153Y85916D01*
X81568Y85114D01*
X81000Y84299D01*
X80451Y83472D01*
X79920Y82633D01*
X79408Y81782D01*
X78915Y80920D01*
X78440Y80048D01*
X77986Y79165D01*
X77551Y78272D01*
X77135Y77371D01*
X76740Y76460D01*
X76366Y75540D01*
X76011Y74613D01*
X75677Y73677D01*
X75364Y72735D01*
X75072Y71786D01*
X74801Y70831D01*
X74551Y69870D01*
X74322Y68904D01*
X74115Y67933D01*
X73930Y66957D01*
X73765Y65978D01*
X73623Y64995D01*
X73503Y64010D01*
X73404Y63022D01*
X73327Y62032D01*
X73272Y61040D01*
X73239Y60048D01*
X73228Y59055D01*
X162992D02*
X162981Y60048D01*
X162948Y61040D01*
X162893Y62032D01*
X162817Y63022D01*
X162718Y64010D01*
X162597Y64995D01*
X162455Y65978D01*
X162291Y66957D01*
X162105Y67933D01*
X161898Y68904D01*
X161670Y69870D01*
X161420Y70831D01*
X161149Y71786D01*
X160856Y72735D01*
X160543Y73678D01*
X160209Y74613D01*
X159855Y75540D01*
X159480Y76460D01*
X159085Y77371D01*
X158670Y78273D01*
X158235Y79165D01*
X157780Y80048D01*
X157306Y80920D01*
X156813Y81782D01*
X156300Y82633D01*
X155769Y83472D01*
X155220Y84299D01*
X154653Y85114D01*
X154067Y85916D01*
X153464Y86704D01*
X152844Y87480D01*
X152206Y88241D01*
X151552Y88988D01*
X150882Y89721D01*
X150196Y90438D01*
X149494Y91141D01*
X148776Y91827D01*
X148044Y92497D01*
X147296Y93151D01*
X146535Y93789D01*
X145760Y94409D01*
X144971Y95012D01*
X144169Y95597D01*
X143354Y96165D01*
X142527Y96714D01*
X141688Y97245D01*
X140837Y97757D01*
X139976Y98251D01*
X139103Y98725D01*
X138220Y99180D01*
X137328Y99615D01*
X136426Y100030D01*
X135515Y100425D01*
X134595Y100800D01*
X133668Y101154D01*
X132733Y101488D01*
X131790Y101801D01*
X130842Y102094D01*
X129886Y102365D01*
X128925Y102614D01*
X127959Y102843D01*
X126988Y103050D01*
X126013Y103236D01*
X125033Y103400D01*
X124050Y103542D01*
X123065Y103663D01*
X122077Y103761D01*
X121087Y103838D01*
X120096Y103893D01*
X119103Y103926D01*
X118110Y103937D01*
Y14173D02*
X119103Y14184D01*
X120096Y14217D01*
X121087Y14272D01*
X122077Y14349D01*
X123065Y14448D01*
X124050Y14568D01*
X125033Y14710D01*
X126013Y14874D01*
X126988Y15060D01*
X127959Y15267D01*
X128925Y15496D01*
X129886Y15746D01*
X130842Y16017D01*
X131790Y16309D01*
X132733Y16622D01*
X133668Y16956D01*
X134596Y17310D01*
X135515Y17685D01*
X136426Y18080D01*
X137328Y18496D01*
X138220Y18931D01*
X139103Y19385D01*
X139976Y19860D01*
X140837Y20353D01*
X141688Y20865D01*
X142527Y21396D01*
X143354Y21945D01*
X144169Y22513D01*
X144971Y23098D01*
X145760Y23701D01*
X146535Y24322D01*
X147297Y24959D01*
X148044Y25613D01*
X148776Y26283D01*
X149494Y26970D01*
X150196Y27672D01*
X150882Y28389D01*
X151552Y29122D01*
X152207Y29869D01*
X152844Y30630D01*
X153464Y31406D01*
X154067Y32195D01*
X154653Y32997D01*
X155220Y33811D01*
X155769Y34639D01*
X156300Y35478D01*
X156813Y36328D01*
X157306Y37190D01*
X157780Y38062D01*
X158235Y38945D01*
X158670Y39838D01*
X159085Y40740D01*
X159480Y41651D01*
X159855Y42570D01*
X160210Y43498D01*
X160543Y44433D01*
X160856Y45375D01*
X161149Y46324D01*
X161420Y47279D01*
X161670Y48240D01*
X161898Y49207D01*
X162105Y50178D01*
X162291Y51153D01*
X162455Y52132D01*
X162597Y53115D01*
X162718Y54101D01*
X162817Y55089D01*
X162893Y56079D01*
X162948Y57070D01*
X162981Y58062D01*
X162992Y59055D01*
X73228D02*
X73239Y58062D01*
X73272Y57070D01*
X73327Y56078D01*
X73404Y55088D01*
X73503Y54100D01*
X73623Y53115D01*
X73765Y52132D01*
X73930Y51153D01*
X74115Y50177D01*
X74322Y49206D01*
X74551Y48240D01*
X74801Y47279D01*
X75072Y46324D01*
X75364Y45375D01*
X75677Y44433D01*
X76011Y43497D01*
X76366Y42570D01*
X76740Y41650D01*
X77136Y40740D01*
X77551Y39838D01*
X77986Y38945D01*
X78440Y38062D01*
X78915Y37190D01*
X79408Y36328D01*
X79920Y35478D01*
X80451Y34638D01*
X81001Y33811D01*
X81568Y32996D01*
X82153Y32195D01*
X82757Y31406D01*
X83377Y30630D01*
X84014Y29869D01*
X84668Y29122D01*
X85338Y28389D01*
X86025Y27672D01*
X86727Y26970D01*
X87445Y26283D01*
X88177Y25613D01*
X88924Y24959D01*
X89685Y24321D01*
X90461Y23701D01*
X91250Y23098D01*
X92052Y22513D01*
X92866Y21945D01*
X93694Y21396D01*
X94533Y20865D01*
X95383Y20353D01*
X96245Y19860D01*
X97118Y19385D01*
X98000Y18931D01*
X98893Y18496D01*
X99795Y18080D01*
X100706Y17685D01*
X101625Y17310D01*
X102553Y16956D01*
X103488Y16622D01*
X104430Y16309D01*
X105379Y16017D01*
X106334Y15746D01*
X107295Y15496D01*
X108262Y15267D01*
X109233Y15060D01*
X110208Y14874D01*
X111187Y14710D01*
X112170Y14568D01*
X113156Y14447D01*
X114144Y14349D01*
X115134Y14272D01*
X116125Y14217D01*
X117118Y14184D01*
X118110Y14173D01*
X-196850Y122047D02*
X-195862Y122078D01*
X-194877Y122171D01*
X-193900Y122326D01*
X-192934Y122542D01*
X-191984Y122818D01*
X-191053Y123153D01*
X-190145Y123546D01*
X-189264Y123995D01*
X-188412Y124499D01*
X-187594Y125055D01*
X-186812Y125661D01*
X-186070Y126315D01*
X-185371Y127015D01*
X-184716Y127757D01*
X-184110Y128539D01*
X-183554Y129357D01*
X-183050Y130209D01*
X-182601Y131090D01*
X-182208Y131998D01*
X-181873Y132929D01*
X-181597Y133879D01*
X-181381Y134844D01*
X-181227Y135822D01*
X-181133Y136806D01*
X-181102Y137795D01*
X-181133Y138784D01*
X-181227Y139769D01*
X-181381Y140746D01*
X-181597Y141712D01*
X-181873Y142662D01*
X-182208Y143593D01*
X-182601Y144501D01*
X-183050Y145382D01*
X-183554Y146233D01*
X-184110Y147052D01*
X-184716Y147833D01*
X-185371Y148575D01*
X-186070Y149275D01*
X-186812Y149929D01*
X-187594Y150536D01*
X-188412Y151092D01*
X-189264Y151595D01*
X-190145Y152044D01*
X-191053Y152437D01*
X-191984Y152773D01*
X-192934Y153049D01*
X-193900Y153264D01*
X-194877Y153419D01*
X-195862Y153512D01*
X-196850Y153543D01*
X-196850D02*
X-197839Y153512D01*
X-198824Y153419D01*
X-199801Y153264D01*
X-200767Y153049D01*
X-201717Y152773D01*
X-202648Y152437D01*
X-203556Y152044D01*
X-204437Y151595D01*
X-205289Y151092D01*
X-206107Y150536D01*
X-206889Y149929D01*
X-207631Y149275D01*
X-208330Y148575D01*
X-208984Y147833D01*
X-209591Y147052D01*
X-210147Y146233D01*
X-210650Y145382D01*
X-211100Y144501D01*
X-211492Y143593D01*
X-211828Y142662D01*
X-212104Y141712D01*
X-212319Y140746D01*
X-212474Y139769D01*
X-212567Y138784D01*
X-212598Y137795D01*
X-212567Y136806D01*
X-212474Y135821D01*
X-212319Y134844D01*
X-212104Y133879D01*
X-211828Y132929D01*
X-211492Y131998D01*
X-211100Y131090D01*
X-210650Y130209D01*
X-210147Y129357D01*
X-209591Y128539D01*
X-208984Y127757D01*
X-208330Y127015D01*
X-207631Y126315D01*
X-206889Y125661D01*
X-206107Y125055D01*
X-205289Y124499D01*
X-204437Y123995D01*
X-203555Y123546D01*
X-202648Y123153D01*
X-201717Y122818D01*
X-200767Y122542D01*
X-199801Y122326D01*
X-198824Y122171D01*
X-197839Y122078D01*
X-196850Y122047D01*
X196850Y153543D02*
X195862Y153512D01*
X194877Y153419D01*
X193900Y153264D01*
X192934Y153049D01*
X191984Y152773D01*
X191053Y152437D01*
X190145Y152044D01*
X189264Y151595D01*
X188412Y151092D01*
X187594Y150536D01*
X186812Y149929D01*
X186070Y149275D01*
X185371Y148575D01*
X184716Y147833D01*
X184110Y147052D01*
X183554Y146233D01*
X183050Y145382D01*
X182601Y144501D01*
X182208Y143593D01*
X181873Y142662D01*
X181597Y141712D01*
X181381Y140746D01*
X181227Y139769D01*
X181133Y138784D01*
X181102Y137795D01*
X212598D02*
X212567Y138784D01*
X212474Y139769D01*
X212319Y140746D01*
X212104Y141712D01*
X211828Y142662D01*
X211492Y143593D01*
X211100Y144501D01*
X210650Y145382D01*
X210147Y146233D01*
X209591Y147052D01*
X208984Y147833D01*
X208330Y148575D01*
X207631Y149275D01*
X206889Y149929D01*
X206107Y150536D01*
X205289Y151092D01*
X204437Y151595D01*
X203556Y152044D01*
X202648Y152437D01*
X201717Y152773D01*
X200767Y153049D01*
X199801Y153264D01*
X198824Y153419D01*
X197839Y153512D01*
X196850Y153543D01*
X196850Y122047D02*
X197839Y122078D01*
X198824Y122171D01*
X199801Y122326D01*
X200767Y122542D01*
X201717Y122818D01*
X202648Y123153D01*
X203556Y123546D01*
X204437Y123995D01*
X205289Y124499D01*
X206107Y125055D01*
X206889Y125661D01*
X207631Y126315D01*
X208330Y127015D01*
X208984Y127757D01*
X209591Y128539D01*
X210147Y129357D01*
X210650Y130209D01*
X211100Y131090D01*
X211492Y131998D01*
X211828Y132929D01*
X212104Y133879D01*
X212319Y134844D01*
X212474Y135822D01*
X212567Y136806D01*
X212598Y137795D01*
X181102D02*
X181133Y136806D01*
X181227Y135821D01*
X181381Y134844D01*
X181597Y133879D01*
X181873Y132929D01*
X182208Y131998D01*
X182601Y131090D01*
X183050Y130209D01*
X183554Y129357D01*
X184110Y128539D01*
X184716Y127757D01*
X185371Y127015D01*
X186070Y126315D01*
X186812Y125661D01*
X187594Y125055D01*
X188412Y124499D01*
X189264Y123995D01*
X190145Y123546D01*
X191053Y123153D01*
X191984Y122818D01*
X192934Y122542D01*
X193900Y122326D01*
X194877Y122171D01*
X195862Y122078D01*
X196850Y122047D01*
X-333302Y-161631D02*
X-333023Y-162107D01*
X-332738Y-162572D01*
X-332448Y-163027D01*
X-332152Y-163472D01*
Y-163472D02*
X-331851Y-163906D01*
Y-163906D02*
X-331543Y-164329D01*
X-331231Y-164743D01*
X-331231D02*
X-330912Y-165146D01*
X-330912D02*
X-330588Y-165538D01*
X-330588D02*
X-330259Y-165921D01*
X-329924Y-166293D01*
X-329924D02*
X-329583Y-166655D01*
Y-166655D02*
X-329237Y-167007D01*
X-328885Y-167348D01*
X-328527Y-167680D01*
Y-167680D02*
X-328165Y-168002D01*
X-328165D02*
X-327423Y-168615D01*
Y-168615D02*
X-326661Y-169188D01*
X-325874Y-169725D01*
X-325874D02*
X-324657Y-170455D01*
X-324657D02*
X-323819Y-170895D01*
Y-170895D02*
X-323393Y-171100D01*
Y-171100D02*
X-322961Y-171297D01*
X-322961D02*
X-322524Y-171484D01*
X-322082Y-171662D01*
Y-171662D02*
X-321635Y-171832D01*
X-321635Y-171832D02*
X-321183Y-171992D01*
X-321183D02*
X-320725Y-172143D01*
X-320264Y-172285D01*
X-320264D02*
X-319796Y-172418D01*
Y-172418D02*
X-319324Y-172543D01*
Y-172543D02*
X-318848Y-172659D01*
Y-172659D02*
X-318366Y-172767D01*
Y-172767D02*
X-317880Y-172866D01*
X-317880D02*
X-317389Y-172957D01*
X-317389D02*
X-316893Y-173039D01*
X-183616Y-123669D02*
X-183105Y-123073D01*
Y-123073D02*
X-182554Y-122393D01*
X-182023Y-121696D01*
X-181515Y-120983D01*
X-181029Y-120254D01*
X-181029Y-120254D02*
X-180616Y-119594D01*
Y-119594D02*
X-180220Y-118922D01*
X-165267Y-46423D02*
X-165610Y-47336D01*
X-165944Y-48253D01*
X-164556Y-44604D02*
X-164916Y-45512D01*
X-165267Y-46423D01*
X-163811Y-42800D02*
X-164188Y-43700D01*
X-164556Y-44604D01*
X-163032Y-41010D02*
X-163426Y-41903D01*
X-163811Y-42800D01*
X-162220Y-39237D02*
X-162630Y-40122D01*
X-163032Y-41010D01*
X-161085Y-36903D02*
X-161470Y-37678D01*
X-161848Y-38456D01*
X-162220Y-39237D01*
X-159895Y-34606D02*
X-160298Y-35368D01*
X-160695Y-36134D01*
X-161085Y-36903D01*
X-158649Y-32351D02*
X-159071Y-33099D01*
X-159486Y-33851D01*
X-159895Y-34606D01*
X-157680Y-30689D02*
X-158169Y-31517D01*
X-158649Y-32351D01*
X-156683Y-29054D02*
X-157186Y-29869D01*
X-157680Y-30689D01*
X-155658Y-27448D02*
X-156175Y-28249D01*
X-156683Y-29054D01*
X-154608Y-25873D02*
X-155137Y-26658D01*
X-155658Y-27448D01*
X-120160Y72D02*
X-120542Y34D01*
X-119779Y103D02*
X-120160Y72D01*
X-119400Y127D02*
X-119779Y103D01*
X-119023Y144D02*
X-119400Y127D01*
X-118273Y158D02*
X-119023Y144D01*
X118698D02*
X117948Y158D01*
X119075Y127D02*
X118698Y144D01*
X119454Y103D02*
X119075Y127D01*
X119834Y72D02*
X119454Y103D01*
X120216Y34D02*
X119834Y72D01*
X155333Y-27448D02*
X154812Y-26658D01*
X154283Y-25873D01*
X156358Y-29054D02*
X155850Y-28249D01*
X155333Y-27448D01*
X157355Y-30689D02*
X156860Y-29869D01*
X156358Y-29054D01*
X158324Y-32351D02*
X157843Y-31517D01*
X157355Y-30689D01*
X159569Y-34606D02*
X159161Y-33851D01*
X158746Y-33099D01*
X158324Y-32351D01*
X160760Y-36903D02*
X160370Y-36134D01*
X159973Y-35368D01*
X159569Y-34606D01*
X161894Y-39237D02*
X161523Y-38456D01*
X161145Y-37678D01*
X160760Y-36903D01*
X162707Y-41010D02*
X162305Y-40122D01*
X161894Y-39237D01*
X163486Y-42800D02*
X163100Y-41903D01*
X162707Y-41010D01*
X164231Y-44604D02*
X163862Y-43700D01*
X163486Y-42800D01*
X164942Y-46423D02*
X164591Y-45512D01*
X164231Y-44604D01*
X165619Y-48253D02*
X165285Y-47336D01*
X164942Y-46423D01*
X179895Y-118922D02*
X180291Y-119594D01*
X180703Y-120254D01*
X181190Y-120983D01*
X181698Y-121696D01*
X182228Y-122393D01*
X182780Y-123073D01*
Y-123073D02*
X183291Y-123669D01*
X316568Y-173039D02*
X317063Y-172957D01*
X317063D02*
X317555Y-172866D01*
X317555D02*
X318041Y-172767D01*
Y-172767D02*
X318523Y-172659D01*
Y-172659D02*
X318999Y-172543D01*
Y-172543D02*
X319471Y-172418D01*
Y-172418D02*
X319938Y-172285D01*
X320400Y-172143D01*
X320857Y-171992D01*
X320857D02*
X321309Y-171832D01*
Y-171832D02*
X321757Y-171662D01*
X321757Y-171662D02*
X322199Y-171484D01*
X322199D02*
X322636Y-171297D01*
X323067Y-171100D01*
X323067Y-171100D02*
X323494Y-170895D01*
Y-170895D02*
X324332Y-170455D01*
X324332Y-170455D02*
X325549Y-169725D01*
X325549D02*
X326336Y-169188D01*
X327098Y-168615D01*
Y-168615D02*
X327839Y-168002D01*
X328202Y-167680D01*
Y-167680D02*
X328559Y-167348D01*
X328559Y-167348D02*
X328911Y-167007D01*
X329257Y-166655D01*
Y-166655D02*
X329598Y-166293D01*
X329598D02*
X329933Y-165921D01*
X330263Y-165538D01*
X330263Y-165538D02*
X330587Y-165146D01*
X330587D02*
X330906Y-164743D01*
X330905D02*
X331218Y-164329D01*
X331525Y-163906D01*
X331525D02*
X331827Y-163472D01*
X332123Y-163027D01*
X332413Y-162572D01*
X332413Y-162572D02*
X332698Y-162107D01*
Y-162107D02*
X332976Y-161631D01*
X333249Y-161145D01*
X333517Y-160648D01*
X235304Y256769D02*
X234786Y257433D01*
X234261Y258093D01*
X233632Y258870D01*
X232994Y259640D01*
X232347Y260403D01*
X231693Y261159D01*
X231031Y261908D01*
X106074Y286962D02*
X107019Y287125D01*
X107962Y287295D01*
X108905Y287470D01*
X109846Y287650D01*
X102993Y286469D02*
X104021Y286626D01*
X105048Y286791D01*
X106074Y286962D01*
X-106399Y286962D02*
X-105373Y286791D01*
X-104346Y286626D01*
X-103318Y286469D01*
X-110172Y287650D02*
X-109230Y287470D01*
X-108288Y287295D01*
X-107344Y287125D01*
X-106399Y286962D01*
X-231356Y261908D02*
X-232018Y261159D01*
X-232673Y260403D01*
X-233319Y259640D01*
X-233957Y258870D01*
X-234587Y258093D01*
X-234587Y258093D02*
X-235111Y257433D01*
X-235629Y256769D01*
X-339960Y-125395D02*
X-339959Y-126382D01*
X-333842Y-160648D02*
X-333575Y-161145D01*
Y-161145D02*
X-333302Y-161631D01*
X-332152Y-163472D02*
X-332152Y-163472D01*
X-331851Y-163906D02*
X-331851D01*
X-331231Y-164743D02*
X-331231Y-164743D01*
X-330912Y-165146D02*
X-330912Y-165146D01*
X-330588Y-165538D02*
X-330588Y-165538D01*
X-329924Y-166293D02*
X-329924D01*
X-329583Y-166655D02*
Y-166655D01*
X-328527Y-167680D02*
Y-167680D01*
X-328165Y-168002D02*
X-328165D01*
X-327423Y-168615D02*
Y-168615D01*
X-325874Y-169725D02*
X-325874Y-169725D01*
X-324657Y-170455D02*
X-324657D01*
X-323819Y-170895D02*
Y-170895D01*
X-323393Y-171100D02*
Y-171100D01*
X-322082Y-171662D02*
Y-171662D01*
X-321635Y-171832D02*
Y-171832D01*
X-321183Y-171992D02*
X-321183D01*
X-320264Y-172285D02*
X-320264D01*
X-319796Y-172418D02*
Y-172418D01*
X-319324Y-172543D02*
Y-172543D01*
X-318848Y-172659D02*
Y-172659D01*
X-318366Y-172767D02*
Y-172767D01*
X-317389Y-172957D02*
X-317389D01*
X-316893Y-173039D02*
X-316392Y-173114D01*
X-315887Y-173180D01*
X-315377Y-173238D01*
X-314863Y-173288D01*
X-314344Y-173330D01*
X-313821Y-173364D01*
X-313293Y-173391D01*
X-312761Y-173410D01*
X-312224Y-173421D01*
X-311684Y-173425D01*
X-311139Y-173422D01*
X-310589Y-173411D01*
X-310036Y-173393D01*
X-309478Y-173368D01*
X-308916Y-173336D01*
X-308350Y-173298D01*
X-307781Y-173252D01*
X-307207Y-173199D01*
X-306629Y-173140D01*
X-306047Y-173075D01*
X-305462Y-173003D01*
X-304873Y-172925D01*
X-304280Y-172840D01*
X-303683Y-172749D01*
X-303083Y-172652D01*
X-302479Y-172550D01*
X-301872Y-172441D01*
X-301261Y-172327D01*
X-300647Y-172207D01*
X-300029Y-172081D01*
X-299409Y-171950D01*
X-298784Y-171814D01*
X-298157Y-171672D01*
X-297526Y-171525D01*
X-296893Y-171373D01*
X-296256Y-171217D01*
X-295616Y-171055D01*
X-294973Y-170888D01*
X-294327Y-170717D01*
X-293679Y-170542D01*
X-293028Y-170361D01*
X-292374Y-170177D01*
X-291717Y-169988D01*
X-291057Y-169795D01*
X-290395Y-169598D01*
X-289731Y-169397D01*
X-289064Y-169192D01*
X-288394Y-168983D01*
X-287723Y-168770D01*
X-287049Y-168554D01*
X-286372Y-168335D01*
X-285694Y-168112D01*
X-285013Y-167886D01*
X-284331Y-167656D01*
X-283646Y-167424D01*
X-282959Y-167188D01*
X-282271Y-166950D01*
X-281580Y-166709D01*
X-280888Y-166465D01*
X-280194Y-166218D01*
X-279499Y-165969D01*
X-278801Y-165717D01*
X-278103Y-165463D01*
X-277402Y-165207D01*
X-276701Y-164949D01*
X-275998Y-164689D01*
X-275293Y-164426D01*
X-274588Y-164162D01*
X-273881Y-163896D01*
X-273173Y-163628D01*
X-272464Y-163358D01*
X-271754Y-163087D01*
X-271043Y-162815D01*
X-270331Y-162541D01*
X-269618Y-162266D01*
X-268905Y-161990D01*
X-268191Y-161712D01*
X-267476Y-161434D01*
X-266760Y-161154D01*
X-266044Y-160874D01*
X-265328Y-160593D01*
X-264611Y-160311D01*
X-263894Y-160028D01*
X-263176Y-159745D01*
X-262459Y-159461D01*
X-261741Y-159177D01*
X-261023Y-158893D01*
X-260305Y-158608D01*
X-259587Y-158323D01*
X-258869Y-158038D01*
X-258151Y-157753D01*
X-257433Y-157467D01*
X-256716Y-157182D01*
X-255998Y-156897D01*
X-255282Y-156612D01*
X-254565Y-156327D01*
X-253850Y-156043D01*
X-253134Y-155759D01*
X-252420Y-155475D01*
X-251706Y-155192D01*
X-250992Y-154909D01*
X-250280Y-154627D01*
X-249568Y-154345D01*
X-248857Y-154064D01*
X-248148Y-153784D01*
X-247439Y-153504D01*
X-246731Y-153225D01*
X-246025Y-152947D01*
X-245319Y-152670D01*
X-244615Y-152393D01*
X-243912Y-152118D01*
X-243211Y-151844D01*
X-242511Y-151570D01*
X-241812Y-151297D01*
X-241115Y-151026D01*
X-238344Y-149951D01*
X-236969Y-149420D01*
X-236285Y-149156D01*
X-235602Y-148894D01*
X-234922Y-148632D01*
X-234243Y-148372D01*
X-233567Y-148113D01*
X-232893Y-147856D01*
X-232221Y-147599D01*
X-231552Y-147344D01*
X-230885Y-147090D01*
X-230220Y-146837D01*
X-229558Y-146586D01*
X-228898Y-146335D01*
X-228241Y-146086D01*
X-227587Y-145838D01*
X-226935Y-145591D01*
X-226286Y-145346D01*
X-225640Y-145101D01*
X-224996Y-144858D01*
X-224356Y-144616D01*
X-223718Y-144375D01*
X-223083Y-144135D01*
X-222452Y-143896D01*
X-221823Y-143659D01*
X-221198Y-143422D01*
X-220576Y-143187D01*
X-219957Y-142952D01*
X-219341Y-142719D01*
X-218729Y-142486D01*
X-218120Y-142255D01*
X-217514Y-142024D01*
X-216912Y-141794D01*
X-216313Y-141565D01*
X-215718Y-141337D01*
X-215126Y-141110D01*
X-214539Y-140883D01*
X-213954Y-140657D01*
X-213373Y-140432D01*
X-212797Y-140208D01*
X-212224Y-139984D01*
X-211654Y-139761D01*
X-211089Y-139538D01*
X-210527Y-139316D01*
X-209970Y-139094D01*
X-209416Y-138873D01*
X-208867Y-138652D01*
X-208321Y-138431D01*
X-207780Y-138211D01*
X-207242Y-137991D01*
X-206709Y-137771D01*
X-206180Y-137551D01*
X-205655Y-137331D01*
X-205134Y-137112D01*
X-204618Y-136892D01*
X-204106Y-136673D01*
X-203598Y-136453D01*
X-203095Y-136233D01*
X-202596Y-136014D01*
X-202101Y-135793D01*
X-201611Y-135573D01*
X-201126Y-135352D01*
X-200644Y-135131D01*
X-200168Y-134910D01*
X-199696Y-134688D01*
X-199228Y-134465D01*
X-198765Y-134242D01*
X-198307Y-134018D01*
X-197853Y-133794D01*
X-197404Y-133569D01*
X-196960Y-133343D01*
X-196520Y-133116D01*
X-196085Y-132889D01*
X-195654Y-132660D01*
X-195229Y-132431D01*
X-194808Y-132200D01*
X-194392Y-131968D01*
X-193981Y-131736D01*
X-193574Y-131501D01*
X-193172Y-131266D01*
X-192775Y-131030D01*
X-192383Y-130792D01*
X-191996Y-130552D01*
X-191613Y-130312D01*
X-191235Y-130069D01*
X-190862Y-129825D01*
X-190494Y-129580D01*
X-190131Y-129333D01*
X-189773Y-129084D01*
X-189419Y-128833D01*
X-189070Y-128581D01*
X-188727Y-128326D01*
X-188388Y-128070D01*
X-188054Y-127812D01*
X-187724Y-127551D01*
X-187400Y-127289D01*
X-187080Y-127025D01*
X-186765Y-126758D01*
X-186455Y-126489D01*
X-186150Y-126218D01*
X-185849Y-125945D01*
X-185554Y-125669D01*
X-185263Y-125391D01*
X-184977Y-125110D01*
X-184695Y-124827D01*
X-184418Y-124541D01*
X-184146Y-124253D01*
X-183879Y-123962D01*
X-183616Y-123669D01*
X-183616Y-123669D01*
X-181029Y-120254D02*
X-181029D01*
X-180220Y-118922D02*
X-180220D01*
X-180028Y-118581D01*
X-179841Y-118237D01*
X-179658Y-117889D01*
X-179478Y-117539D01*
X-179303Y-117185D01*
X-179132Y-116828D01*
X-178964Y-116467D01*
X-178801Y-116103D01*
X-178641Y-115736D01*
X-178485Y-115366D01*
X-178333Y-114992D01*
X-178184Y-114614D01*
X-178039Y-114234D01*
X-177898Y-113850D01*
X-177760Y-113462D01*
X-177626Y-113071D01*
X-177495Y-112677D01*
X-177367Y-112279D01*
X-177242Y-111878D01*
X-177121Y-111473D01*
X-177003Y-111065D01*
X-176888Y-110653D01*
X-176776Y-110238D01*
X-176667Y-109819D01*
X-176560Y-109397D01*
X-176457Y-108972D01*
X-176356Y-108543D01*
X-176259Y-108110D01*
X-176163Y-107674D01*
X-176070Y-107235D01*
X-175980Y-106792D01*
X-175892Y-106346D01*
X-175806Y-105896D01*
X-175723Y-105444D01*
X-175642Y-104987D01*
X-175563Y-104527D01*
X-175486Y-104064D01*
X-175411Y-103598D01*
X-175338Y-103128D01*
X-175266Y-102655D01*
X-175197Y-102179D01*
X-175129Y-101699D01*
X-175062Y-101216D01*
X-174997Y-100730D01*
X-174934Y-100240D01*
X-174872Y-99748D01*
X-174811Y-99252D01*
X-174751Y-98753D01*
X-174693Y-98251D01*
X-174636Y-97745D01*
X-174579Y-97237D01*
X-174523Y-96726D01*
X-174469Y-96211D01*
X-174414Y-95694D01*
X-174361Y-95174D01*
X-174308Y-94650D01*
X-174256Y-94124D01*
X-174204Y-93595D01*
X-174152Y-93063D01*
X-174100Y-92528D01*
X-174049Y-91991D01*
X-173998Y-91450D01*
X-173946Y-90907D01*
X-173895Y-90362D01*
X-173844Y-89813D01*
X-173792Y-89262D01*
X-173740Y-88709D01*
X-173688Y-88153D01*
X-173635Y-87594D01*
X-173581Y-87033D01*
X-173527Y-86470D01*
X-173472Y-85904D01*
X-173417Y-85336D01*
X-173360Y-84766D01*
X-173303Y-84193D01*
X-173245Y-83618D01*
X-173185Y-83041D01*
X-173125Y-82462D01*
X-173063Y-81881D01*
X-173000Y-81298D01*
X-172935Y-80713D01*
X-172869Y-80126D01*
X-172802Y-79537D01*
X-172733Y-78946D01*
X-172662Y-78353D01*
X-172590Y-77759D01*
X-172516Y-77163D01*
X-172440Y-76565D01*
X-172362Y-75966D01*
X-172282Y-75366D01*
X-172199Y-74763D01*
X-172115Y-74160D01*
X-172029Y-73554D01*
X-171940Y-72948D01*
X-171849Y-72340D01*
X-171756Y-71732D01*
X-171660Y-71122D01*
X-171562Y-70510D01*
X-171461Y-69898D01*
X-171357Y-69285D01*
X-171251Y-68671D01*
X-171142Y-68055D01*
X-171030Y-67440D01*
X-170916Y-66823D01*
X-170798Y-66206D01*
X-170678Y-65587D01*
X-170554Y-64969D01*
X-170428Y-64349D01*
X-170298Y-63730D01*
X-170166Y-63109D01*
X-170030Y-62489D01*
X-169891Y-61868D01*
X-169748Y-61247D01*
X-169603Y-60626D01*
X-169454Y-60004D01*
X-169301Y-59383D01*
X-169145Y-58761D01*
X-168986Y-58140D01*
X-168657Y-56897D01*
X-168314Y-55655D01*
X-167956Y-54415D01*
X-167583Y-53177D01*
X-167196Y-51941D01*
X-166794Y-50708D01*
X-166376Y-49478D01*
X-165944Y-48253D01*
Y-48253D02*
Y-48253D01*
X-164556Y-44604D02*
X-164556D01*
X-163811Y-42800D02*
X-163811D01*
X-162220Y-39237D02*
Y-39237D01*
X-159895Y-34606D02*
Y-34606D01*
X-156683Y-29054D02*
Y-29054D01*
X-154608Y-25873D02*
Y-25873D01*
Y-25873D02*
X-153894Y-24841D01*
X-153169Y-23823D01*
X-152434Y-22821D01*
X-151690Y-21835D01*
X-150936Y-20864D01*
X-150174Y-19911D01*
X-149403Y-18974D01*
X-148625Y-18056D01*
X-147839Y-17155D01*
X-147046Y-16273D01*
X-146648Y-15839D01*
X-146247Y-15410D01*
X-145846Y-14986D01*
X-145443Y-14566D01*
X-145038Y-14152D01*
X-144633Y-13742D01*
X-144226Y-13338D01*
X-143818Y-12938D01*
X-143409Y-12544D01*
X-142999Y-12155D01*
X-142587Y-11771D01*
X-142175Y-11393D01*
X-141763Y-11020D01*
X-141349Y-10652D01*
X-140935Y-10290D01*
X-140520Y-9933D01*
X-140104Y-9582D01*
X-139688Y-9236D01*
X-139272Y-8896D01*
X-138855Y-8562D01*
X-138438Y-8233D01*
X-138020Y-7910D01*
X-137602Y-7593D01*
X-137185Y-7282D01*
X-136767Y-6976D01*
X-136349Y-6677D01*
X-135931Y-6383D01*
X-135513Y-6096D01*
X-135095Y-5814D01*
X-134677Y-5539D01*
X-134260Y-5270D01*
X-133843Y-5006D01*
X-133426Y-4750D01*
X-133010Y-4499D01*
X-132594Y-4254D01*
X-132178Y-4016D01*
X-131763Y-3784D01*
X-131349Y-3559D01*
X-130935Y-3340D01*
X-130522Y-3127D01*
X-130110Y-2921D01*
X-129699Y-2721D01*
X-129288Y-2528D01*
X-128879Y-2341D01*
X-128470Y-2161D01*
X-128062Y-1987D01*
X-127655Y-1820D01*
X-127249Y-1660D01*
X-126845Y-1506D01*
X-126441Y-1359D01*
X-126039Y-1219D01*
X-125637Y-1085D01*
X-125237Y-958D01*
X-124839Y-838D01*
X-124441Y-725D01*
X-124045Y-618D01*
X-123650Y-518D01*
X-123257Y-425D01*
X-122864Y-339D01*
X-122474Y-260D01*
X-122084Y-187D01*
X-121696Y-122D01*
X-121310Y-63D01*
X-120925Y-11D01*
X-120542Y34D01*
Y34D01*
X-118273Y158D02*
X117948D01*
X120216Y34D02*
Y34D01*
Y34D02*
X120600Y-11D01*
X120985Y-63D01*
X121371Y-122D01*
X121759Y-187D01*
X122148Y-260D01*
X122539Y-339D01*
X122931Y-425D01*
X123325Y-518D01*
X123720Y-618D01*
X124116Y-725D01*
X124513Y-838D01*
X124912Y-958D01*
X125312Y-1085D01*
X125713Y-1219D01*
X126116Y-1359D01*
X126520Y-1506D01*
X126924Y-1660D01*
X127330Y-1820D01*
X127737Y-1987D01*
X128145Y-2161D01*
X128553Y-2341D01*
X128963Y-2528D01*
X129374Y-2721D01*
X129785Y-2921D01*
X130197Y-3127D01*
X130610Y-3340D01*
X131024Y-3559D01*
X131438Y-3784D01*
X131853Y-4016D01*
X132268Y-4254D01*
X132684Y-4499D01*
X133101Y-4750D01*
X133517Y-5006D01*
X133934Y-5270D01*
X134352Y-5539D01*
X134770Y-5814D01*
X135187Y-6096D01*
X135605Y-6383D01*
X136023Y-6677D01*
X136441Y-6976D01*
X136859Y-7282D01*
X137277Y-7593D01*
X137695Y-7910D01*
X138112Y-8233D01*
X138530Y-8562D01*
X138947Y-8896D01*
X139363Y-9236D01*
X139779Y-9582D01*
X140195Y-9933D01*
X140610Y-10290D01*
X141024Y-10652D01*
X141437Y-11020D01*
X141850Y-11393D01*
X142262Y-11771D01*
X142673Y-12155D01*
X143083Y-12544D01*
X143492Y-12938D01*
X143901Y-13338D01*
X144307Y-13742D01*
X144713Y-14152D01*
X145117Y-14566D01*
X145521Y-14986D01*
X145922Y-15410D01*
X146323Y-15839D01*
X146721Y-16273D01*
X147514Y-17155D01*
X148300Y-18056D01*
X149078Y-18974D01*
X149849Y-19911D01*
X150611Y-20864D01*
X151365Y-21835D01*
X152109Y-22821D01*
X152844Y-23823D01*
X153569Y-24841D01*
X154283Y-25873D01*
Y-25873D01*
X156358Y-29054D02*
Y-29054D01*
X159569Y-34606D02*
Y-34606D01*
X161894Y-39237D02*
Y-39237D01*
X163486Y-42800D02*
X163486D01*
X164231Y-44604D02*
X164231D01*
X165619Y-48253D02*
Y-48253D01*
X166051Y-49478D01*
X166469Y-50708D01*
X166871Y-51941D01*
X167258Y-53177D01*
X167631Y-54415D01*
X167988Y-55655D01*
X168332Y-56897D01*
X168661Y-58140D01*
X168820Y-58761D01*
X168976Y-59383D01*
X169128Y-60004D01*
X169277Y-60626D01*
X169423Y-61247D01*
X169565Y-61868D01*
X169704Y-62489D01*
X169840Y-63109D01*
X169973Y-63730D01*
X170103Y-64349D01*
X170229Y-64969D01*
X170352Y-65587D01*
X170473Y-66206D01*
X170590Y-66823D01*
X170705Y-67440D01*
X170817Y-68055D01*
X170926Y-68671D01*
X171032Y-69285D01*
X171135Y-69898D01*
X171236Y-70510D01*
X171335Y-71122D01*
X171430Y-71732D01*
X171524Y-72340D01*
X171615Y-72948D01*
X171704Y-73554D01*
X171790Y-74160D01*
X171874Y-74763D01*
X171956Y-75366D01*
X172036Y-75966D01*
X172114Y-76565D01*
X172190Y-77163D01*
X172265Y-77759D01*
X172337Y-78353D01*
X172408Y-78946D01*
X172477Y-79537D01*
X172544Y-80126D01*
X172610Y-80713D01*
X172675Y-81298D01*
X172738Y-81881D01*
X172800Y-82462D01*
X172860Y-83041D01*
X172919Y-83618D01*
X172978Y-84193D01*
X173035Y-84766D01*
X173091Y-85336D01*
X173147Y-85904D01*
X173202Y-86470D01*
X173256Y-87033D01*
X173309Y-87594D01*
X173362Y-88153D01*
X173415Y-88709D01*
X173467Y-89262D01*
X173518Y-89813D01*
X173570Y-90362D01*
X173621Y-90907D01*
X173672Y-91450D01*
X173724Y-91991D01*
X173775Y-92528D01*
X173827Y-93063D01*
X173878Y-93595D01*
X173930Y-94124D01*
X173983Y-94650D01*
X174036Y-95174D01*
X174089Y-95694D01*
X174143Y-96211D01*
X174198Y-96726D01*
X174254Y-97237D01*
X174310Y-97745D01*
X174368Y-98251D01*
X174426Y-98753D01*
X174486Y-99252D01*
X174547Y-99748D01*
X174609Y-100240D01*
X174672Y-100730D01*
X174737Y-101216D01*
X174803Y-101699D01*
X174871Y-102179D01*
X174941Y-102655D01*
X175012Y-103128D01*
X175086Y-103598D01*
X175161Y-104064D01*
X175238Y-104527D01*
X175317Y-104987D01*
X175398Y-105444D01*
X175481Y-105896D01*
X175567Y-106346D01*
X175655Y-106792D01*
X175745Y-107235D01*
X175838Y-107674D01*
X175933Y-108110D01*
X176031Y-108543D01*
X176132Y-108972D01*
X176235Y-109397D01*
X176341Y-109819D01*
X176451Y-110238D01*
X176563Y-110653D01*
X176678Y-111065D01*
X176796Y-111473D01*
X176917Y-111878D01*
X177042Y-112279D01*
X177169Y-112677D01*
X177300Y-113071D01*
X177435Y-113462D01*
X177573Y-113850D01*
X177714Y-114234D01*
X177859Y-114614D01*
X178008Y-114992D01*
X178160Y-115366D01*
X178316Y-115736D01*
X178475Y-116103D01*
X178639Y-116467D01*
X178806Y-116828D01*
X178978Y-117185D01*
X179153Y-117539D01*
X179332Y-117889D01*
X179516Y-118237D01*
X179703Y-118581D01*
X179895Y-118922D01*
X179895D01*
X180703Y-120254D02*
X180703D01*
X183291Y-123669D02*
X183291Y-123669D01*
X183554Y-123962D01*
X183821Y-124253D01*
X184093Y-124541D01*
X184370Y-124827D01*
X184651Y-125110D01*
X184938Y-125391D01*
X185228Y-125669D01*
X185524Y-125945D01*
X185825Y-126218D01*
X186130Y-126489D01*
X186440Y-126758D01*
X186755Y-127025D01*
X187074Y-127289D01*
X187399Y-127551D01*
X187728Y-127812D01*
X188062Y-128070D01*
X188401Y-128326D01*
X188745Y-128581D01*
X189094Y-128833D01*
X189447Y-129084D01*
X189806Y-129333D01*
X190169Y-129580D01*
X190537Y-129825D01*
X190910Y-130069D01*
X191288Y-130312D01*
X191670Y-130552D01*
X192058Y-130792D01*
X192450Y-131030D01*
X192847Y-131266D01*
X193249Y-131501D01*
X193655Y-131736D01*
X194067Y-131968D01*
X194483Y-132200D01*
X194904Y-132431D01*
X195329Y-132660D01*
X195760Y-132889D01*
X196195Y-133116D01*
X196634Y-133343D01*
X197079Y-133569D01*
X197528Y-133794D01*
X197982Y-134018D01*
X198440Y-134242D01*
X198903Y-134465D01*
X199371Y-134688D01*
X199843Y-134910D01*
X200319Y-135131D01*
X200800Y-135352D01*
X201286Y-135573D01*
X201776Y-135793D01*
X202271Y-136014D01*
X202770Y-136233D01*
X203273Y-136453D01*
X203781Y-136673D01*
X204293Y-136892D01*
X204809Y-137112D01*
X205330Y-137331D01*
X205855Y-137551D01*
X206384Y-137771D01*
X206917Y-137991D01*
X207454Y-138211D01*
X207996Y-138431D01*
X208541Y-138652D01*
X209091Y-138873D01*
X209645Y-139094D01*
X210202Y-139316D01*
X210764Y-139538D01*
X211329Y-139761D01*
X211898Y-139984D01*
X212471Y-140208D01*
X213048Y-140432D01*
X213629Y-140657D01*
X214213Y-140883D01*
X214801Y-141110D01*
X215393Y-141337D01*
X215988Y-141565D01*
X216587Y-141794D01*
X217189Y-142024D01*
X217794Y-142255D01*
X218404Y-142486D01*
X219016Y-142719D01*
X219632Y-142952D01*
X220251Y-143187D01*
X220873Y-143422D01*
X221498Y-143659D01*
X222127Y-143896D01*
X222758Y-144135D01*
X223393Y-144375D01*
X224030Y-144616D01*
X224671Y-144858D01*
X225314Y-145101D01*
X225961Y-145346D01*
X226610Y-145591D01*
X227261Y-145838D01*
X227916Y-146086D01*
X228573Y-146335D01*
X229233Y-146586D01*
X229895Y-146837D01*
X230559Y-147090D01*
X231226Y-147344D01*
X231896Y-147599D01*
X232568Y-147856D01*
X233242Y-148113D01*
X233918Y-148372D01*
X234596Y-148632D01*
X235277Y-148894D01*
X235960Y-149156D01*
X236644Y-149420D01*
X238019Y-149951D01*
X240790Y-151026D01*
X241487Y-151297D01*
X242186Y-151570D01*
X242886Y-151844D01*
X243587Y-152118D01*
X244290Y-152393D01*
X244994Y-152670D01*
X245699Y-152947D01*
X246406Y-153225D01*
X247114Y-153504D01*
X247822Y-153784D01*
X248532Y-154064D01*
X249243Y-154345D01*
X249955Y-154627D01*
X250667Y-154909D01*
X251380Y-155192D01*
X252094Y-155475D01*
X252809Y-155759D01*
X253524Y-156043D01*
X254240Y-156327D01*
X254957Y-156612D01*
X255673Y-156897D01*
X256390Y-157182D01*
X257108Y-157467D01*
X257825Y-157753D01*
X258543Y-158038D01*
X259261Y-158323D01*
X259979Y-158608D01*
X260698Y-158893D01*
X261416Y-159177D01*
X262133Y-159461D01*
X262851Y-159745D01*
X263569Y-160028D01*
X264286Y-160311D01*
X265003Y-160593D01*
X265719Y-160874D01*
X266435Y-161154D01*
X267151Y-161434D01*
X267865Y-161712D01*
X268580Y-161990D01*
X269293Y-162266D01*
X270006Y-162541D01*
X270718Y-162815D01*
X271429Y-163087D01*
X272139Y-163358D01*
X272848Y-163628D01*
X273556Y-163896D01*
X274262Y-164162D01*
X274968Y-164426D01*
X275672Y-164689D01*
X276376Y-164949D01*
X277077Y-165207D01*
X277777Y-165463D01*
X278476Y-165717D01*
X279173Y-165969D01*
X279869Y-166218D01*
X280563Y-166465D01*
X281255Y-166709D01*
X281945Y-166950D01*
X282634Y-167188D01*
X283321Y-167424D01*
X284005Y-167656D01*
X284688Y-167886D01*
X285369Y-168112D01*
X286047Y-168335D01*
X286723Y-168554D01*
X287398Y-168770D01*
X288069Y-168983D01*
X288739Y-169192D01*
X289406Y-169397D01*
X290070Y-169598D01*
X290732Y-169795D01*
X291392Y-169988D01*
X292048Y-170177D01*
X292702Y-170361D01*
X293354Y-170542D01*
X294002Y-170717D01*
X294648Y-170888D01*
X295291Y-171055D01*
X295931Y-171217D01*
X296567Y-171373D01*
X297201Y-171525D01*
X297832Y-171672D01*
X298459Y-171814D01*
X299083Y-171950D01*
X299704Y-172081D01*
X300322Y-172207D01*
X300936Y-172327D01*
X301547Y-172441D01*
X302154Y-172550D01*
X302758Y-172652D01*
X303358Y-172749D01*
X303955Y-172840D01*
X304548Y-172925D01*
X305137Y-173003D01*
X305722Y-173075D01*
X306304Y-173140D01*
X306881Y-173199D01*
X307455Y-173252D01*
X308025Y-173298D01*
X308591Y-173336D01*
X309153Y-173368D01*
X309710Y-173393D01*
X310264Y-173411D01*
X310813Y-173422D01*
X311358Y-173425D01*
X311899Y-173421D01*
X312436Y-173410D01*
X312968Y-173391D01*
X313496Y-173364D01*
X314019Y-173330D01*
X314538Y-173288D01*
X315052Y-173238D01*
X315562Y-173180D01*
X316067Y-173114D01*
X316568Y-173039D01*
X317063Y-172957D02*
X317063D01*
X318041Y-172767D02*
Y-172767D01*
X318523Y-172659D02*
Y-172659D01*
X318999Y-172543D02*
Y-172543D01*
X319471Y-172418D02*
Y-172418D01*
X319938Y-172285D02*
X319938D01*
X320857Y-171992D02*
X320857D01*
X321309Y-171832D02*
Y-171832D01*
X321757Y-171662D02*
Y-171662D01*
X323067Y-171100D02*
Y-171100D01*
X323494Y-170895D02*
Y-170895D01*
X324332Y-170455D02*
X324332D01*
X325549Y-169725D02*
X325549Y-169725D01*
X327098Y-168615D02*
Y-168615D01*
X327839Y-168002D02*
X327839D01*
X328202Y-167680D02*
Y-167680D01*
X329257Y-166655D02*
Y-166655D01*
X329598Y-166293D02*
X329598D01*
X330263Y-165538D02*
X330263Y-165538D01*
X330587Y-165146D02*
X330587Y-165146D01*
X330905Y-164743D02*
X330906Y-164743D01*
X331525Y-163906D02*
X331525D01*
X331827Y-163472D02*
X331827Y-163472D01*
X333517Y-160648D02*
X333779Y-160140D01*
X334035Y-159622D01*
X334285Y-159094D01*
X334529Y-158555D01*
X334768Y-158005D01*
X335001Y-157444D01*
X335228Y-156873D01*
X335450Y-156292D01*
X335666Y-155699D01*
X335876Y-155096D01*
X336080Y-154483D01*
X336279Y-153858D01*
X336471Y-153223D01*
X336658Y-152578D01*
X336839Y-151921D01*
X337015Y-151255D01*
X337184Y-150577D01*
X337348Y-149889D01*
X337507Y-149190D01*
X337659Y-148481D01*
X337806Y-147761D01*
X337947Y-147030D01*
X338082Y-146289D01*
X338211Y-145537D01*
X338335Y-144775D01*
X338453Y-144002D01*
X338565Y-143219D01*
X338672Y-142425D01*
X338773Y-141621D01*
X338868Y-140806D01*
X338958Y-139981D01*
X339042Y-139146D01*
X339121Y-138300D01*
X339193Y-137444D01*
X339261Y-136578D01*
X339322Y-135702D01*
X339378Y-134815D01*
X339429Y-133918D01*
X339474Y-133011D01*
X339513Y-132094D01*
X339547Y-131167D01*
X339575Y-130229D01*
X339598Y-129282D01*
X339616Y-128325D01*
X339628Y-127358D01*
X339634Y-126381D01*
X339635Y-125395D01*
X339631Y-124399D02*
X339635Y-125395D01*
X339621Y-123392D02*
X339631Y-124399D01*
X339606Y-122377D02*
X339621Y-123392D01*
X339586Y-121351D02*
X339606Y-122377D01*
X339561Y-120317D02*
X339586Y-121351D01*
X339530Y-119272D02*
X339561Y-120317D01*
X339493Y-118218D02*
X339530Y-119272D01*
X339452Y-117155D02*
X339493Y-118218D01*
X339406Y-116083D02*
X339452Y-117155D01*
X339354Y-115001D02*
X339406Y-116083D01*
X339297Y-113910D02*
X339354Y-115001D01*
X339235Y-112810D02*
X339297Y-113910D01*
X339168Y-111701D02*
X339235Y-112810D01*
X339095Y-110582D02*
X339168Y-111701D01*
X339018Y-109455D02*
X339095Y-110582D01*
X338936Y-108319D02*
X339018Y-109455D01*
X338848Y-107174D02*
X338936Y-108319D01*
X338756Y-106020D02*
X338848Y-107174D01*
X338659Y-104858D02*
X338756Y-106020D01*
X338557Y-103687D02*
X338659Y-104858D01*
X338450Y-102507D02*
X338557Y-103687D01*
X338338Y-101319D02*
X338450Y-102507D01*
X338221Y-100122D02*
X338338Y-101319D01*
X338099Y-98917D02*
X338221Y-100122D01*
X337973Y-97704D02*
X338099Y-98917D01*
X337842Y-96482D02*
X337973Y-97704D01*
X337706Y-95253D02*
X337842Y-96482D01*
X337565Y-94015D02*
X337706Y-95253D01*
X337420Y-92769D02*
X337565Y-94015D01*
X337270Y-91515D02*
X337420Y-92769D01*
X337116Y-90254D02*
X337270Y-91515D01*
X336957Y-88984D02*
X337116Y-90254D01*
X336793Y-87707D02*
X336957Y-88984D01*
X336625Y-86422D02*
X336793Y-87707D01*
X336453Y-85130D02*
X336625Y-86422D01*
X336276Y-83831D02*
X336453Y-85130D01*
X336094Y-82524D02*
X336276Y-83831D01*
X335909Y-81209D02*
X336094Y-82524D01*
X335719Y-79887D02*
X335909Y-81209D01*
X335524Y-78559D02*
X335719Y-79887D01*
X335326Y-77223D02*
X335524Y-78559D01*
X335123Y-75880D02*
X335326Y-77223D01*
X334916Y-74530D02*
X335123Y-75880D01*
X334705Y-73174D02*
X334916Y-74530D01*
X334489Y-71811D02*
X334705Y-73174D01*
X334270Y-70441D02*
X334489Y-71811D01*
X334047Y-69065D02*
X334270Y-70441D01*
X333819Y-67682D02*
X334047Y-69065D01*
X333588Y-66293D02*
X333819Y-67682D01*
X333353Y-64897D02*
X333588Y-66293D01*
X333113Y-63495D02*
X333353Y-64897D01*
X332870Y-62088D02*
X333113Y-63495D01*
X332623Y-60674D02*
X332870Y-62088D01*
X332373Y-59254D02*
X332623Y-60674D01*
X332118Y-57829D02*
X332373Y-59254D01*
X331860Y-56397D02*
X332118Y-57829D01*
X331598Y-54961D02*
X331860Y-56397D01*
X331332Y-53518D02*
X331598Y-54961D01*
X331064Y-52070D02*
X331332Y-53518D01*
X330791Y-50617D02*
X331064Y-52070D01*
X330515Y-49159D02*
X330791Y-50617D01*
X330235Y-47695D02*
X330515Y-49159D01*
X329952Y-46226D02*
X330235Y-47695D01*
X329665Y-44752D02*
X329952Y-46226D01*
X329376Y-43274D02*
X329665Y-44752D01*
X329082Y-41790D02*
X329376Y-43274D01*
X328786Y-40302D02*
X329082Y-41790D01*
X328486Y-38810D02*
X328786Y-40302D01*
X328183Y-37312D02*
X328486Y-38810D01*
X327877Y-35811D02*
X328183Y-37312D01*
X327568Y-34305D02*
X327877Y-35811D01*
X327256Y-32795D02*
X327568Y-34305D01*
X326940Y-31281D02*
X327256Y-32795D01*
X326622Y-29763D02*
X326940Y-31281D01*
X326301Y-28240D02*
X326622Y-29763D01*
X325976Y-26715D02*
X326301Y-28240D01*
X325649Y-25185D02*
X325976Y-26715D01*
X325320Y-23652D02*
X325649Y-25185D01*
X324987Y-22115D02*
X325320Y-23652D01*
X324651Y-20575D02*
X324987Y-22115D01*
X324313Y-19031D02*
X324651Y-20575D01*
X323972Y-17485D02*
X324313Y-19031D01*
X323629Y-15935D02*
X323972Y-17485D01*
X323283Y-14382D02*
X323629Y-15935D01*
X322934Y-12827D02*
X323283Y-14382D01*
X322583Y-11269D02*
X322934Y-12827D01*
X322229Y-9708D02*
X322583Y-11269D01*
X321873Y-8144D02*
X322229Y-9708D01*
X321515Y-6578D02*
X321873Y-8144D01*
X321154Y-5009D02*
X321515Y-6578D01*
X320791Y-3438D02*
X321154Y-5009D01*
X320426Y-1865D02*
X320791Y-3438D01*
X320058Y-290D02*
X320426Y-1865D01*
X319689Y1287D02*
X320058Y-290D01*
X319317Y2866D02*
X319689Y1287D01*
X318943Y4446D02*
X319317Y2866D01*
X318567Y6028D02*
X318943Y4446D01*
X318189Y7612D02*
X318567Y6028D01*
X317809Y9198D02*
X318189Y7612D01*
X317427Y10784D02*
X317809Y9198D01*
X317043Y12372D02*
X317427Y10784D01*
X316658Y13961D02*
X317043Y12372D01*
X316270Y15552D02*
X316658Y13961D01*
X315881Y17143D02*
X316270Y15552D01*
X315490Y18734D02*
X315881Y17143D01*
X315098Y20327D02*
X315490Y18734D01*
X314703Y21921D02*
X315098Y20327D01*
X314308Y23514D02*
X314703Y21921D01*
X313910Y25109D02*
X314308Y23514D01*
X313511Y26703D02*
X313910Y25109D01*
X313111Y28298D02*
X313511Y26703D01*
X312709Y29893D02*
X313111Y28298D01*
X312306Y31488D02*
X312709Y29893D01*
X311902Y33083D02*
X312306Y31488D01*
X311496Y34677D02*
X311902Y33083D01*
X311089Y36272D02*
X311496Y34677D01*
X310681Y37865D02*
X311089Y36272D01*
X310271Y39459D02*
X310681Y37865D01*
X309449Y42644D02*
X310271Y39459D01*
X308622Y45826D02*
X309449Y42644D01*
X307791Y49004D02*
X308622Y45826D01*
X306957Y52177D02*
X307791Y49004D01*
X306120Y55344D02*
X306957Y52177D01*
X305279Y58506D02*
X306120Y55344D01*
X304436Y61660D02*
X305279Y58506D01*
X303590Y64806D02*
X304436Y61660D01*
X302742Y67943D02*
X303590Y64806D01*
X301892Y71071D02*
X302742Y67943D01*
X301041Y74189D02*
X301892Y71071D01*
X299762Y78845D02*
X301041Y74189D01*
X298481Y83473D02*
X299762Y78845D01*
X296344Y91120D02*
X298481Y83473D01*
X291230Y109071D02*
X296344Y91120D01*
X289960Y113457D02*
X291230Y109071D01*
X288694Y117798D02*
X289960Y113457D01*
X287853Y120667D02*
X288694Y117798D01*
X287014Y123513D02*
X287853Y120667D01*
X286179Y126338D02*
X287014Y123513D01*
X285346Y129140D02*
X286179Y126338D01*
X284517Y131919D02*
X285346Y129140D01*
X284103Y133299D02*
X284517Y131919D01*
X283691Y134674D02*
X284103Y133299D01*
X283279Y136042D02*
X283691Y134674D01*
X282869Y137405D02*
X283279Y136042D01*
X282459Y138761D02*
X282869Y137405D01*
X282050Y140111D02*
X282459Y138761D01*
X281642Y141455D02*
X282050Y140111D01*
X281235Y142792D02*
X281642Y141455D01*
X280829Y144123D02*
X281235Y142792D01*
X280424Y145447D02*
X280829Y144123D01*
X280021Y146765D02*
X280424Y145447D01*
X279618Y148076D02*
X280021Y146765D01*
X279216Y149380D02*
X279618Y148076D01*
X278816Y150678D02*
X279216Y149380D01*
X278416Y151969D02*
X278816Y150678D01*
X278018Y153253D02*
X278416Y151969D01*
X277621Y154530D02*
X278018Y153253D01*
X277225Y155801D02*
X277621Y154530D01*
X276830Y157064D02*
X277225Y155801D01*
X276436Y158320D02*
X276830Y157064D01*
X276044Y159570D02*
X276436Y158320D01*
X275652Y160812D02*
X276044Y159570D01*
X275262Y162047D02*
X275652Y160812D01*
X274874Y163275D02*
X275262Y162047D01*
X274486Y164495D02*
X274874Y163275D01*
X274100Y165708D02*
X274486Y164495D01*
X273715Y166914D02*
X274100Y165708D01*
X273331Y168113D02*
X273715Y166914D01*
X272948Y169304D02*
X273331Y168113D01*
X272567Y170487D02*
X272948Y169304D01*
X272187Y171663D02*
X272567Y170487D01*
X271809Y172832D02*
X272187Y171663D01*
X271431Y173993D02*
X271809Y172832D01*
X271055Y175147D02*
X271431Y173993D01*
X270681Y176293D02*
X271055Y175147D01*
X270307Y177431D02*
X270681Y176293D01*
X269935Y178561D02*
X270307Y177431D01*
X269565Y179684D02*
X269935Y178561D01*
X269195Y180799D02*
X269565Y179684D01*
X268827Y181907D02*
X269195Y180799D01*
X268461Y183007D02*
X268827Y181907D01*
X268095Y184098D02*
X268461Y183007D01*
X267731Y185182D02*
X268095Y184098D01*
X267369Y186259D02*
X267731Y185182D01*
X267007Y187327D02*
X267369Y186259D01*
X266647Y188387D02*
X267007Y187327D01*
X266289Y189440D02*
X266647Y188387D01*
X265931Y190485D02*
X266289Y189440D01*
X265575Y191522D02*
X265931Y190485D01*
X265220Y192551D02*
X265575Y191522D01*
X264867Y193571D02*
X265220Y192551D01*
X264515Y194585D02*
X264867Y193571D01*
X264164Y195590D02*
X264515Y194585D01*
X263814Y196587D02*
X264164Y195590D01*
X263466Y197576D02*
X263814Y196587D01*
X263119Y198557D02*
X263466Y197576D01*
X262773Y199531D02*
X263119Y198557D01*
X262429Y200496D02*
X262773Y199531D01*
X262086Y201454D02*
X262429Y200496D01*
X261743Y202404D02*
X262086Y201454D01*
X261403Y203345D02*
X261743Y202404D01*
X261063Y204279D02*
X261403Y203345D01*
X260724Y205205D02*
X261063Y204279D01*
X260387Y206123D02*
X260724Y205205D01*
X260051Y207033D02*
X260387Y206123D01*
X259716Y207936D02*
X260051Y207033D01*
X259382Y208830D02*
X259716Y207936D01*
X259049Y209717D02*
X259382Y208830D01*
X258717Y210596D02*
X259049Y209717D01*
X258386Y211467D02*
X258717Y210596D01*
X258057Y212331D02*
X258386Y211467D01*
X257728Y213187D02*
X258057Y212331D01*
X257400Y214035D02*
X257728Y213187D01*
X257073Y214875D02*
X257400Y214035D01*
X256747Y215708D02*
X257073Y214875D01*
X256422Y216533D02*
X256747Y215708D01*
X256098Y217351D02*
X256422Y216533D01*
X255775Y218161D02*
X256098Y217351D01*
X255453Y218964D02*
X255775Y218161D01*
X255131Y219759D02*
X255453Y218964D01*
X254810Y220546D02*
X255131Y219759D01*
X254490Y221327D02*
X254810Y220546D01*
X254171Y222100D02*
X254490Y221327D01*
X253852Y222865D02*
X254171Y222100D01*
X253535Y223624D02*
X253852Y222865D01*
X253217Y224375D02*
X253535Y223624D01*
X252900Y225119D02*
X253217Y224375D01*
X252584Y225856D02*
X252900Y225119D01*
X252269Y226586D02*
X252584Y225856D01*
X251954Y227309D02*
X252269Y226586D01*
X251639Y228025D02*
X251954Y227309D01*
X251325Y228734D02*
X251639Y228025D01*
X251011Y229436D02*
X251325Y228734D01*
X250697Y230131D02*
X251011Y229436D01*
X250384Y230820D02*
X250697Y230131D01*
X250072Y231501D02*
X250384Y230820D01*
X249759Y232176D02*
X250072Y231501D01*
X249447Y232845D02*
X249759Y232176D01*
X249135Y233507D02*
X249447Y232845D01*
X248823Y234163D02*
X249135Y233507D01*
X248511Y234812D02*
X248823Y234163D01*
X248199Y235455D02*
X248511Y234812D01*
X247887Y236091D02*
X248199Y235455D01*
X247575Y236722D02*
X247887Y236091D01*
X247264Y237346D02*
X247575Y236722D01*
X246952Y237964D02*
X247264Y237346D01*
X246640Y238576D02*
X246952Y237964D01*
X246327Y239182D02*
X246640Y238576D01*
X246015Y239782D02*
X246327Y239182D01*
X245702Y240377D02*
X246015Y239782D01*
X245389Y240966D02*
X245702Y240377D01*
X245076Y241549D02*
X245389Y240966D01*
X244762Y242126D02*
X245076Y241549D01*
X244448Y242698D02*
X244762Y242126D01*
X244134Y243264D02*
X244448Y242698D01*
X243819Y243825D02*
X244134Y243264D01*
X243503Y244381D02*
X243819Y243825D01*
X243187Y244932D02*
X243503Y244381D01*
X242870Y245477D02*
X243187Y244932D01*
X242552Y246017D02*
X242870Y245477D01*
X242234Y246552D02*
X242552Y246017D01*
X241915Y247082D02*
X242234Y246552D01*
X241595Y247608D02*
X241915Y247082D01*
X241274Y248129D02*
X241595Y247608D01*
X240953Y248644D02*
X241274Y248129D01*
X240630Y249156D02*
X240953Y248644D01*
X240307Y249662D02*
X240630Y249156D01*
X239982Y250165D02*
X240307Y249662D01*
X239656Y250662D02*
X239982Y250165D01*
X239330Y251156D02*
X239656Y250662D01*
X239002Y251645D02*
X239330Y251156D01*
X238672Y252130D02*
X239002Y251645D01*
X238342Y252611D02*
X238672Y252130D01*
X238010Y253088D02*
X238342Y252611D01*
X237343Y254030D02*
X238010Y253088D01*
X236669Y254958D02*
X237343Y254030D01*
X235990Y255870D02*
X236669Y254958D01*
X235304Y256769D02*
X235990Y255870D01*
X235304Y256769D02*
X235304D01*
X231031Y261908D02*
X231031D01*
X230289Y262727D02*
X231031Y261908D01*
X229538Y263538D02*
X230289Y262727D01*
X228778Y264341D02*
X229538Y263538D01*
X228007Y265136D02*
X228778Y264341D01*
X227618Y265531D02*
X228007Y265136D01*
X227226Y265924D02*
X227618Y265531D01*
X226832Y266316D02*
X227226Y265924D01*
X226435Y266706D02*
X226832Y266316D01*
X226035Y267094D02*
X226435Y266706D01*
X225632Y267482D02*
X226035Y267094D01*
X225227Y267868D02*
X225632Y267482D01*
X224818Y268252D02*
X225227Y267868D01*
X224407Y268636D02*
X224818Y268252D01*
X223993Y269018D02*
X224407Y268636D01*
X223576Y269399D02*
X223993Y269018D01*
X223156Y269780D02*
X223576Y269399D01*
X222733Y270159D02*
X223156Y269780D01*
X222306Y270538D02*
X222733Y270159D01*
X221877Y270916D02*
X222306Y270538D01*
X221445Y271292D02*
X221877Y270916D01*
X221009Y271669D02*
X221445Y271292D01*
X220570Y272045D02*
X221009Y271669D01*
X220128Y272420D02*
X220570Y272045D01*
X219682Y272795D02*
X220128Y272420D01*
X219233Y273169D02*
X219682Y272795D01*
X218781Y273543D02*
X219233Y273169D01*
X218326Y273917D02*
X218781Y273543D01*
X217867Y274290D02*
X218326Y273917D01*
X217404Y274664D02*
X217867Y274290D01*
X216938Y275037D02*
X217404Y274664D01*
X216469Y275410D02*
X216938Y275037D01*
X215996Y275783D02*
X216469Y275410D01*
X215520Y276156D02*
X215996Y275783D01*
X215040Y276530D02*
X215520Y276156D01*
X214556Y276903D02*
X215040Y276530D01*
X214069Y277276D02*
X214556Y276903D01*
X213578Y277650D02*
X214069Y277276D01*
X213083Y278024D02*
X213578Y277650D01*
X212584Y278398D02*
X213083Y278024D01*
X212082Y278773D02*
X212584Y278398D01*
X211577Y279148D02*
X212082Y278773D01*
X211067Y279523D02*
X211577Y279148D01*
X210553Y279899D02*
X211067Y279523D01*
X210036Y280276D02*
X210553Y279899D01*
X209515Y280653D02*
X210036Y280276D01*
X208990Y281030D02*
X209515Y280653D01*
X208461Y281408D02*
X208990Y281030D01*
X207928Y281787D02*
X208461Y281408D01*
X207392Y282167D02*
X207928Y281787D01*
X206851Y282547D02*
X207392Y282167D01*
X206306Y282928D02*
X206851Y282547D01*
X205758Y283309D02*
X206306Y282928D01*
X205205Y283692D02*
X205758Y283309D01*
X204649Y284075D02*
X205205Y283692D01*
X204088Y284459D02*
X204649Y284075D01*
X203524Y284844D02*
X204088Y284459D01*
X202956Y285229D02*
X203524Y284844D01*
X202383Y285616D02*
X202956Y285229D01*
X201806Y286003D02*
X202383Y285616D01*
X201226Y286392D02*
X201806Y286003D01*
X200641Y286781D02*
X201226Y286392D01*
X200053Y287171D02*
X200641Y286781D01*
X199460Y287562D02*
X200053Y287171D01*
X198863Y287954D02*
X199460Y287562D01*
X198263Y288347D02*
X198863Y287954D01*
X136845Y297796D02*
X198263Y288347D01*
X136784Y297725D02*
X136845Y297796D01*
X136752Y297689D02*
X136784Y297725D01*
X136721Y297654D02*
X136752Y297689D01*
X136689Y297619D02*
X136721Y297654D01*
X136657Y297583D02*
X136689Y297619D01*
X136624Y297548D02*
X136657Y297583D01*
X136591Y297513D02*
X136624Y297548D01*
X136558Y297477D02*
X136591Y297513D01*
X136525Y297442D02*
X136558Y297477D01*
X136491Y297407D02*
X136525Y297442D01*
X136457Y297372D02*
X136491Y297407D01*
X136423Y297337D02*
X136457Y297372D01*
X136388Y297302D02*
X136423Y297337D01*
X136353Y297267D02*
X136388Y297302D01*
X136317Y297232D02*
X136353Y297267D01*
X136282Y297197D02*
X136317Y297232D01*
X136246Y297162D02*
X136282Y297197D01*
X136209Y297127D02*
X136246Y297162D01*
X136173Y297092D02*
X136209Y297127D01*
X136136Y297057D02*
X136173Y297092D01*
X136099Y297023D02*
X136136Y297057D01*
X136061Y296988D02*
X136099Y297023D01*
X136023Y296953D02*
X136061Y296988D01*
X135985Y296919D02*
X136023Y296953D01*
X135946Y296884D02*
X135985Y296919D01*
X135907Y296850D02*
X135946Y296884D01*
X135868Y296815D02*
X135907Y296850D01*
X135829Y296781D02*
X135868Y296815D01*
X135789Y296746D02*
X135829Y296781D01*
X135749Y296712D02*
X135789Y296746D01*
X135709Y296678D02*
X135749Y296712D01*
X135668Y296644D02*
X135709Y296678D01*
X135627Y296609D02*
X135668Y296644D01*
X135586Y296575D02*
X135627Y296609D01*
X135544Y296541D02*
X135586Y296575D01*
X135502Y296507D02*
X135544Y296541D01*
X135460Y296473D02*
X135502Y296507D01*
X135417Y296439D02*
X135460Y296473D01*
X135374Y296405D02*
X135417Y296439D01*
X135331Y296371D02*
X135374Y296405D01*
X135288Y296337D02*
X135331Y296371D01*
X135244Y296303D02*
X135288Y296337D01*
X135200Y296269D02*
X135244Y296303D01*
X135155Y296236D02*
X135200Y296269D01*
X135111Y296202D02*
X135155Y296236D01*
X135066Y296168D02*
X135111Y296202D01*
X135021Y296135D02*
X135066Y296168D01*
X134975Y296101D02*
X135021Y296135D01*
X134929Y296068D02*
X134975Y296101D01*
X134883Y296034D02*
X134929Y296068D01*
X134836Y296001D02*
X134883Y296034D01*
X134790Y295967D02*
X134836Y296001D01*
X134742Y295934D02*
X134790Y295967D01*
X134695Y295901D02*
X134742Y295934D01*
X134647Y295867D02*
X134695Y295901D01*
X134599Y295834D02*
X134647Y295867D01*
X134551Y295801D02*
X134599Y295834D01*
X134502Y295768D02*
X134551Y295801D01*
X134453Y295735D02*
X134502Y295768D01*
X134404Y295702D02*
X134453Y295735D01*
X134355Y295669D02*
X134404Y295702D01*
X134305Y295636D02*
X134355Y295669D01*
X134255Y295603D02*
X134305Y295636D01*
X134205Y295570D02*
X134255Y295603D01*
X134154Y295537D02*
X134205Y295570D01*
X134103Y295504D02*
X134154Y295537D01*
X134052Y295471D02*
X134103Y295504D01*
X134000Y295439D02*
X134052Y295471D01*
X133949Y295406D02*
X134000Y295439D01*
X133896Y295373D02*
X133949Y295406D01*
X133844Y295341D02*
X133896Y295373D01*
X133791Y295308D02*
X133844Y295341D01*
X133738Y295276D02*
X133791Y295308D01*
X133685Y295243D02*
X133738Y295276D01*
X133632Y295211D02*
X133685Y295243D01*
X133578Y295178D02*
X133632Y295211D01*
X133524Y295146D02*
X133578Y295178D01*
X133469Y295114D02*
X133524Y295146D01*
X133415Y295081D02*
X133469Y295114D01*
X133360Y295049D02*
X133415Y295081D01*
X133305Y295017D02*
X133360Y295049D01*
X133249Y294985D02*
X133305Y295017D01*
X133193Y294953D02*
X133249Y294985D01*
X133137Y294921D02*
X133193Y294953D01*
X133081Y294889D02*
X133137Y294921D01*
X133024Y294857D02*
X133081Y294889D01*
X132968Y294825D02*
X133024Y294857D01*
X132911Y294793D02*
X132968Y294825D01*
X132853Y294761D02*
X132911Y294793D01*
X132795Y294729D02*
X132853Y294761D01*
X132738Y294698D02*
X132795Y294729D01*
X132679Y294666D02*
X132738Y294698D01*
X132621Y294634D02*
X132679Y294666D01*
X132562Y294603D02*
X132621Y294634D01*
X132503Y294571D02*
X132562Y294603D01*
X132444Y294540D02*
X132503Y294571D01*
X132384Y294508D02*
X132444Y294540D01*
X132325Y294477D02*
X132384Y294508D01*
X132264Y294445D02*
X132325Y294477D01*
X132204Y294414D02*
X132264Y294445D01*
X132143Y294383D02*
X132204Y294414D01*
X132083Y294352D02*
X132143Y294383D01*
X132022Y294320D02*
X132083Y294352D01*
X131960Y294289D02*
X132022Y294320D01*
X131899Y294258D02*
X131960Y294289D01*
X131837Y294227D02*
X131899Y294258D01*
X131775Y294196D02*
X131837Y294227D01*
X131712Y294165D02*
X131775Y294196D01*
X131650Y294134D02*
X131712Y294165D01*
X131587Y294103D02*
X131650Y294134D01*
X131524Y294072D02*
X131587Y294103D01*
X131460Y294041D02*
X131524Y294072D01*
X131397Y294011D02*
X131460Y294041D01*
X131333Y293980D02*
X131397Y294011D01*
X131269Y293949D02*
X131333Y293980D01*
X131204Y293919D02*
X131269Y293949D01*
X131140Y293888D02*
X131204Y293919D01*
X131075Y293858D02*
X131140Y293888D01*
X131010Y293827D02*
X131075Y293858D01*
X130945Y293797D02*
X131010Y293827D01*
X130879Y293766D02*
X130945Y293797D01*
X130813Y293736D02*
X130879Y293766D01*
X130747Y293706D02*
X130813Y293736D01*
X130681Y293675D02*
X130747Y293706D01*
X130615Y293645D02*
X130681Y293675D01*
X130548Y293615D02*
X130615Y293645D01*
X130481Y293585D02*
X130548Y293615D01*
X130414Y293555D02*
X130481Y293585D01*
X130346Y293525D02*
X130414Y293555D01*
X130279Y293495D02*
X130346Y293525D01*
X130211Y293465D02*
X130279Y293495D01*
X130143Y293435D02*
X130211Y293465D01*
X130075Y293405D02*
X130143Y293435D01*
X130006Y293375D02*
X130075Y293405D01*
X129937Y293345D02*
X130006Y293375D01*
X129868Y293316D02*
X129937Y293345D01*
X129799Y293286D02*
X129868Y293316D01*
X129730Y293256D02*
X129799Y293286D01*
X129660Y293227D02*
X129730Y293256D01*
X129590Y293197D02*
X129660Y293227D01*
X129520Y293167D02*
X129590Y293197D01*
X129450Y293138D02*
X129520Y293167D01*
X129379Y293109D02*
X129450Y293138D01*
X129309Y293079D02*
X129379Y293109D01*
X129238Y293050D02*
X129309Y293079D01*
X129167Y293021D02*
X129238Y293050D01*
X129095Y292991D02*
X129167Y293021D01*
X129024Y292962D02*
X129095Y292991D01*
X128952Y292933D02*
X129024Y292962D01*
X128808Y292875D02*
X128952Y292933D01*
X128663Y292817D02*
X128808Y292875D01*
X128517Y292759D02*
X128663Y292817D01*
X128371Y292702D02*
X128517Y292759D01*
X128223Y292644D02*
X128371Y292702D01*
X128075Y292587D02*
X128223Y292644D01*
X127927Y292530D02*
X128075Y292587D01*
X127777Y292473D02*
X127927Y292530D01*
X127627Y292417D02*
X127777Y292473D01*
X127476Y292360D02*
X127627Y292417D01*
X127324Y292304D02*
X127476Y292360D01*
X127171Y292248D02*
X127324Y292304D01*
X127018Y292192D02*
X127171Y292248D01*
X126864Y292136D02*
X127018Y292192D01*
X126710Y292081D02*
X126864Y292136D01*
X126555Y292025D02*
X126710Y292081D01*
X126399Y291970D02*
X126555Y292025D01*
X126242Y291915D02*
X126399Y291970D01*
X126085Y291861D02*
X126242Y291915D01*
X125927Y291806D02*
X126085Y291861D01*
X125769Y291752D02*
X125927Y291806D01*
X125610Y291698D02*
X125769Y291752D01*
X125450Y291644D02*
X125610Y291698D01*
X125290Y291590D02*
X125450Y291644D01*
X125129Y291536D02*
X125290Y291590D01*
X124968Y291483D02*
X125129Y291536D01*
X124806Y291430D02*
X124968Y291483D01*
X124643Y291377D02*
X124806Y291430D01*
X124480Y291324D02*
X124643Y291377D01*
X124316Y291271D02*
X124480Y291324D01*
X124152Y291219D02*
X124316Y291271D01*
X123988Y291167D02*
X124152Y291219D01*
X123822Y291115D02*
X123988Y291167D01*
X123657Y291063D02*
X123822Y291115D01*
X123491Y291011D02*
X123657Y291063D01*
X123324Y290960D02*
X123491Y291011D01*
X123157Y290909D02*
X123324Y290960D01*
X122989Y290858D02*
X123157Y290909D01*
X122821Y290807D02*
X122989Y290858D01*
X122653Y290756D02*
X122821Y290807D01*
X122484Y290706D02*
X122653Y290756D01*
X122315Y290655D02*
X122484Y290706D01*
X122145Y290605D02*
X122315Y290655D01*
X121975Y290556D02*
X122145Y290605D01*
X121805Y290506D02*
X121975Y290556D01*
X121634Y290457D02*
X121805Y290506D01*
X121463Y290407D02*
X121634Y290457D01*
X121291Y290358D02*
X121463Y290407D01*
X121119Y290310D02*
X121291Y290358D01*
X120947Y290261D02*
X121119Y290310D01*
X120774Y290212D02*
X120947Y290261D01*
X120601Y290164D02*
X120774Y290212D01*
X120428Y290116D02*
X120601Y290164D01*
X120254Y290068D02*
X120428Y290116D01*
X120080Y290021D02*
X120254Y290068D01*
X119906Y289973D02*
X120080Y290021D01*
X119731Y289926D02*
X119906Y289973D01*
X119469Y289856D02*
X119731Y289926D01*
X119206Y289786D02*
X119469Y289856D01*
X118942Y289716D02*
X119206Y289786D01*
X118678Y289647D02*
X118942Y289716D01*
X118413Y289579D02*
X118678Y289647D01*
X118148Y289511D02*
X118413Y289579D01*
X117882Y289443D02*
X118148Y289511D01*
X117616Y289376D02*
X117882Y289443D01*
X117349Y289309D02*
X117616Y289376D01*
X117082Y289243D02*
X117349Y289309D01*
X116815Y289177D02*
X117082Y289243D01*
X116457Y289090D02*
X116815Y289177D01*
X116099Y289004D02*
X116457Y289090D01*
X115741Y288919D02*
X116099Y289004D01*
X115382Y288835D02*
X115741Y288919D01*
X114932Y288730D02*
X115382Y288835D01*
X114481Y288627D02*
X114932Y288730D01*
X114030Y288525D02*
X114481Y288627D01*
X113487Y288405D02*
X114030Y288525D01*
X112853Y288267D02*
X113487Y288405D01*
X112126Y288112D02*
X112853Y288267D01*
X111216Y287924D02*
X112126Y288112D01*
X109846Y287650D02*
X111216Y287924D01*
X106074Y286962D02*
X106074D01*
X101667Y286275D02*
X102993Y286469D01*
X100711Y286143D02*
X101667Y286275D01*
X99941Y286040D02*
X100711Y286143D01*
X99262Y285953D02*
X99941Y286040D01*
X98676Y285880D02*
X99262Y285953D01*
X98087Y285808D02*
X98676Y285880D01*
X97592Y285750D02*
X98087Y285808D01*
X97095Y285692D02*
X97592Y285750D01*
X96694Y285647D02*
X97095Y285692D01*
X96292Y285603D02*
X96694Y285647D01*
X95887Y285559D02*
X96292Y285603D01*
X95480Y285516D02*
X95887Y285559D01*
X95071Y285474D02*
X95480Y285516D01*
X94763Y285442D02*
X95071Y285474D01*
X94453Y285411D02*
X94763Y285442D01*
X94141Y285381D02*
X94453Y285411D01*
X93828Y285350D02*
X94141Y285381D01*
X93514Y285321D02*
X93828Y285350D01*
X93198Y285291D02*
X93514Y285321D01*
X92880Y285262D02*
X93198Y285291D01*
X92561Y285233D02*
X92880Y285262D01*
X92239Y285205D02*
X92561Y285233D01*
X91917Y285177D02*
X92239Y285205D01*
X91592Y285149D02*
X91917Y285177D01*
X91266Y285121D02*
X91592Y285149D01*
X90938Y285094D02*
X91266Y285121D01*
X90607Y285068D02*
X90938Y285094D01*
X90386Y285050D02*
X90607Y285068D01*
X90164Y285033D02*
X90386Y285050D01*
X89941Y285015D02*
X90164Y285033D01*
X89717Y284998D02*
X89941Y285015D01*
X89492Y284981D02*
X89717Y284998D01*
X89266Y284964D02*
X89492Y284981D01*
X89040Y284948D02*
X89266Y284964D01*
X88812Y284931D02*
X89040Y284948D01*
X88583Y284915D02*
X88812Y284931D01*
X88354Y284898D02*
X88583Y284915D01*
X88123Y284882D02*
X88354Y284898D01*
X87892Y284866D02*
X88123Y284882D01*
X87659Y284850D02*
X87892Y284866D01*
X87425Y284835D02*
X87659Y284850D01*
X87190Y284819D02*
X87425Y284835D01*
X86954Y284804D02*
X87190Y284819D01*
X86717Y284788D02*
X86954Y284804D01*
X86479Y284773D02*
X86717Y284788D01*
X86240Y284758D02*
X86479Y284773D01*
X86000Y284743D02*
X86240Y284758D01*
X85759Y284729D02*
X86000Y284743D01*
X85516Y284714D02*
X85759Y284729D01*
X85272Y284700D02*
X85516Y284714D01*
X85027Y284685D02*
X85272Y284700D01*
X84781Y284671D02*
X85027Y284685D01*
X84534Y284657D02*
X84781Y284671D01*
X84285Y284643D02*
X84534Y284657D01*
X84035Y284629D02*
X84285Y284643D01*
X83784Y284616D02*
X84035Y284629D01*
X83532Y284602D02*
X83784Y284616D01*
X83279Y284589D02*
X83532Y284602D01*
X83024Y284575D02*
X83279Y284589D01*
X82767Y284562D02*
X83024Y284575D01*
X82510Y284549D02*
X82767Y284562D01*
X82251Y284536D02*
X82510Y284549D01*
X81991Y284524D02*
X82251Y284536D01*
X81729Y284511D02*
X81991Y284524D01*
X81466Y284498D02*
X81729Y284511D01*
X81202Y284486D02*
X81466Y284498D01*
X80936Y284474D02*
X81202Y284486D01*
X80668Y284461D02*
X80936Y284474D01*
X80400Y284450D02*
X80668Y284461D01*
X80130Y284438D02*
X80400Y284450D01*
X79858Y284426D02*
X80130Y284438D01*
X79585Y284414D02*
X79858Y284426D01*
X79310Y284403D02*
X79585Y284414D01*
X79034Y284391D02*
X79310Y284403D01*
X78756Y284380D02*
X79034Y284391D01*
X78477Y284369D02*
X78756Y284380D01*
X78196Y284358D02*
X78477Y284369D01*
X77914Y284347D02*
X78196Y284358D01*
X77630Y284336D02*
X77914Y284347D01*
X77344Y284325D02*
X77630Y284336D01*
X77057Y284314D02*
X77344Y284325D01*
X76768Y284304D02*
X77057Y284314D01*
X76477Y284293D02*
X76768Y284304D01*
X76185Y284283D02*
X76477Y284293D01*
X75891Y284273D02*
X76185Y284283D01*
X75596Y284263D02*
X75891Y284273D01*
X75298Y284253D02*
X75596Y284263D01*
X74999Y284243D02*
X75298Y284253D01*
X74698Y284233D02*
X74999Y284243D01*
X74396Y284223D02*
X74698Y284233D01*
X74091Y284214D02*
X74396Y284223D01*
X73785Y284204D02*
X74091Y284214D01*
X73477Y284195D02*
X73785Y284204D01*
X73168Y284186D02*
X73477Y284195D01*
X72856Y284177D02*
X73168Y284186D01*
X72542Y284168D02*
X72856Y284177D01*
X72227Y284159D02*
X72542Y284168D01*
X71910Y284150D02*
X72227Y284159D01*
X71591Y284141D02*
X71910Y284150D01*
X71269Y284132D02*
X71591Y284141D01*
X70946Y284124D02*
X71269Y284132D01*
X70621Y284115D02*
X70946Y284124D01*
X70294Y284107D02*
X70621Y284115D01*
X70130Y284103D02*
X70294Y284107D01*
X69965Y284099D02*
X70130Y284103D01*
X69800Y284095D02*
X69965Y284099D01*
X69635Y284090D02*
X69800Y284095D01*
X69468Y284086D02*
X69635Y284090D01*
X69302Y284082D02*
X69468Y284086D01*
X69134Y284078D02*
X69302Y284082D01*
X68967Y284074D02*
X69134Y284078D01*
X68799Y284070D02*
X68967Y284074D01*
X68630Y284067D02*
X68799Y284070D01*
X68461Y284063D02*
X68630Y284067D01*
X68291Y284059D02*
X68461Y284063D01*
X68120Y284055D02*
X68291Y284059D01*
X67950Y284051D02*
X68120Y284055D01*
X67778Y284047D02*
X67950Y284051D01*
X67606Y284043D02*
X67778Y284047D01*
X67434Y284040D02*
X67606Y284043D01*
X67261Y284036D02*
X67434Y284040D01*
X67088Y284032D02*
X67261Y284036D01*
X66914Y284029D02*
X67088Y284032D01*
X66739Y284025D02*
X66914Y284029D01*
X66564Y284021D02*
X66739Y284025D01*
X66388Y284017D02*
X66564Y284021D01*
X66212Y284014D02*
X66388Y284017D01*
X66036Y284010D02*
X66212Y284014D01*
X65859Y284007D02*
X66036Y284010D01*
X65681Y284003D02*
X65859Y284007D01*
X65503Y284000D02*
X65681Y284003D01*
X65324Y283996D02*
X65503Y284000D01*
X65144Y283993D02*
X65324Y283996D01*
X64964Y283989D02*
X65144Y283993D01*
X64784Y283986D02*
X64964Y283989D01*
X64603Y283982D02*
X64784Y283986D01*
X64421Y283979D02*
X64603Y283982D01*
X64239Y283976D02*
X64421Y283979D01*
X64056Y283972D02*
X64239Y283976D01*
X63873Y283969D02*
X64056Y283972D01*
X63689Y283965D02*
X63873Y283969D01*
X63505Y283962D02*
X63689Y283965D01*
X63320Y283959D02*
X63505Y283962D01*
X63134Y283956D02*
X63320Y283959D01*
X62948Y283952D02*
X63134Y283956D01*
X62761Y283949D02*
X62948Y283952D01*
X62574Y283946D02*
X62761Y283949D01*
X62386Y283943D02*
X62574Y283946D01*
X62198Y283940D02*
X62386Y283943D01*
X62009Y283937D02*
X62198Y283940D01*
X61819Y283933D02*
X62009Y283937D01*
X61629Y283930D02*
X61819Y283933D01*
X61438Y283927D02*
X61629Y283930D01*
X61247Y283924D02*
X61438Y283927D01*
X61055Y283921D02*
X61247Y283924D01*
X60862Y283918D02*
X61055Y283921D01*
X60669Y283915D02*
X60862Y283918D01*
X60475Y283912D02*
X60669Y283915D01*
X60281Y283909D02*
X60475Y283912D01*
X60086Y283906D02*
X60281Y283909D01*
X59891Y283903D02*
X60086Y283906D01*
X59694Y283900D02*
X59891Y283903D01*
X59498Y283898D02*
X59694Y283900D01*
X59300Y283895D02*
X59498Y283898D01*
X59102Y283892D02*
X59300Y283895D01*
X58904Y283889D02*
X59102Y283892D01*
X58705Y283886D02*
X58904Y283889D01*
X58505Y283884D02*
X58705Y283886D01*
X58304Y283881D02*
X58505Y283884D01*
X58103Y283878D02*
X58304Y283881D01*
X57902Y283875D02*
X58103Y283878D01*
X57700Y283873D02*
X57902Y283875D01*
X57497Y283870D02*
X57700Y283873D01*
X57293Y283867D02*
X57497Y283870D01*
X57089Y283865D02*
X57293Y283867D01*
X56884Y283862D02*
X57089Y283865D01*
X56679Y283859D02*
X56884Y283862D01*
X56473Y283857D02*
X56679Y283859D01*
X56266Y283854D02*
X56473Y283857D01*
X56059Y283852D02*
X56266Y283854D01*
X55851Y283849D02*
X56059Y283852D01*
X55642Y283846D02*
X55851Y283849D01*
X55433Y283844D02*
X55642Y283846D01*
X55223Y283841D02*
X55433Y283844D01*
X55013Y283839D02*
X55223Y283841D01*
X54801Y283837D02*
X55013Y283839D01*
X54590Y283834D02*
X54801Y283837D01*
X54377Y283832D02*
X54590Y283834D01*
X54164Y283829D02*
X54377Y283832D01*
X53950Y283827D02*
X54164Y283829D01*
X53736Y283825D02*
X53950Y283827D01*
X53521Y283822D02*
X53736Y283825D01*
X53305Y283820D02*
X53521Y283822D01*
X53089Y283818D02*
X53305Y283820D01*
X52872Y283815D02*
X53089Y283818D01*
X52654Y283813D02*
X52872Y283815D01*
X52436Y283811D02*
X52654Y283813D01*
X52217Y283808D02*
X52436Y283811D01*
X51997Y283806D02*
X52217Y283808D01*
X51776Y283804D02*
X51997Y283806D01*
X51556Y283802D02*
X51776Y283804D01*
X51334Y283800D02*
X51556Y283802D01*
X51111Y283797D02*
X51334Y283800D01*
X50888Y283795D02*
X51111Y283797D01*
X50665Y283793D02*
X50888Y283795D01*
X50440Y283791D02*
X50665Y283793D01*
X50215Y283789D02*
X50440Y283791D01*
X49989Y283787D02*
X50215Y283789D01*
X49763Y283785D02*
X49989Y283787D01*
X49536Y283783D02*
X49763Y283785D01*
X49308Y283781D02*
X49536Y283783D01*
X49079Y283779D02*
X49308Y283781D01*
X48850Y283777D02*
X49079Y283779D01*
X48620Y283775D02*
X48850Y283777D01*
X48390Y283773D02*
X48620Y283775D01*
X48158Y283771D02*
X48390Y283773D01*
X47926Y283769D02*
X48158Y283771D01*
X47693Y283767D02*
X47926Y283769D01*
X47460Y283765D02*
X47693Y283767D01*
X47226Y283763D02*
X47460Y283765D01*
X46991Y283761D02*
X47226Y283763D01*
X46756Y283759D02*
X46991Y283761D01*
X46520Y283757D02*
X46756Y283759D01*
X46283Y283755D02*
X46520Y283757D01*
X46045Y283754D02*
X46283Y283755D01*
X45807Y283752D02*
X46045Y283754D01*
X45568Y283750D02*
X45807Y283752D01*
X45328Y283748D02*
X45568Y283750D01*
X45087Y283747D02*
X45328Y283748D01*
X44846Y283745D02*
X45087Y283747D01*
X44604Y283743D02*
X44846Y283745D01*
X44361Y283741D02*
X44604Y283743D01*
X44118Y283740D02*
X44361Y283741D01*
X43874Y283738D02*
X44118Y283740D01*
X43629Y283736D02*
X43874Y283738D01*
X43384Y283735D02*
X43629Y283736D01*
X43137Y283733D02*
X43384Y283735D01*
X42890Y283731D02*
X43137Y283733D01*
X42643Y283730D02*
X42890Y283731D01*
X42394Y283728D02*
X42643Y283730D01*
X42145Y283727D02*
X42394Y283728D01*
X41895Y283725D02*
X42145Y283727D01*
X41644Y283723D02*
X41895Y283725D01*
X41393Y283722D02*
X41644Y283723D01*
X41141Y283720D02*
X41393Y283722D01*
X40888Y283719D02*
X41141Y283720D01*
X40634Y283717D02*
X40888Y283719D01*
X40380Y283716D02*
X40634Y283717D01*
X40125Y283714D02*
X40380Y283716D01*
X39869Y283713D02*
X40125Y283714D01*
X39612Y283711D02*
X39869Y283713D01*
X39355Y283710D02*
X39612Y283711D01*
X39097Y283709D02*
X39355Y283710D01*
X38838Y283707D02*
X39097Y283709D01*
X38579Y283706D02*
X38838Y283707D01*
X38318Y283704D02*
X38579Y283706D01*
X38057Y283703D02*
X38318Y283704D01*
X37795Y283701D02*
X38057Y283703D01*
X37533Y283700D02*
X37795Y283701D01*
X37269Y283699D02*
X37533Y283700D01*
X37005Y283698D02*
X37269Y283699D01*
X36740Y283696D02*
X37005Y283698D01*
X36474Y283695D02*
X36740Y283696D01*
X36208Y283694D02*
X36474Y283695D01*
X35941Y283692D02*
X36208Y283694D01*
X35673Y283691D02*
X35941Y283692D01*
X35404Y283690D02*
X35673Y283691D01*
X35135Y283689D02*
X35404Y283690D01*
X34864Y283687D02*
X35135Y283689D01*
X34593Y283686D02*
X34864Y283687D01*
X34321Y283685D02*
X34593Y283686D01*
X34049Y283684D02*
X34321Y283685D01*
X33775Y283683D02*
X34049Y283684D01*
X33501Y283682D02*
X33775Y283683D01*
X33226Y283680D02*
X33501Y283682D01*
X32950Y283679D02*
X33226Y283680D01*
X32674Y283678D02*
X32950Y283679D01*
X32397Y283677D02*
X32674Y283678D01*
X32119Y283676D02*
X32397Y283677D01*
X31840Y283675D02*
X32119Y283676D01*
X31560Y283674D02*
X31840Y283675D01*
X31280Y283673D02*
X31560Y283674D01*
X30999Y283672D02*
X31280Y283673D01*
X30717Y283671D02*
X30999Y283672D01*
X30434Y283670D02*
X30717Y283671D01*
X30150Y283669D02*
X30434Y283670D01*
X29866Y283668D02*
X30150Y283669D01*
X29581Y283667D02*
X29866Y283668D01*
X29295Y283666D02*
X29581Y283667D01*
X29008Y283665D02*
X29295Y283666D01*
X28720Y283664D02*
X29008Y283665D01*
X28432Y283663D02*
X28720Y283664D01*
X28143Y283662D02*
X28432Y283663D01*
X27853Y283661D02*
X28143Y283662D01*
X27562Y283660D02*
X27853Y283661D01*
X27271Y283659D02*
X27562Y283660D01*
X26978Y283658D02*
X27271Y283659D01*
X26685Y283657D02*
X26978Y283658D01*
X26391Y283657D02*
X26685Y283657D01*
X26096Y283656D02*
X26391Y283657D01*
X25801Y283655D02*
X26096Y283656D01*
X25504Y283654D02*
X25801Y283655D01*
X25207Y283653D02*
X25504Y283654D01*
X24909Y283652D02*
X25207Y283653D01*
X24611Y283652D02*
X24909Y283652D01*
X24311Y283651D02*
X24611Y283652D01*
X24010Y283650D02*
X24311Y283651D01*
X23709Y283649D02*
X24010Y283650D01*
X23407Y283649D02*
X23709Y283649D01*
X23104Y283648D02*
X23407Y283649D01*
X22801Y283647D02*
X23104Y283648D01*
X22496Y283646D02*
X22801Y283647D01*
X22191Y283646D02*
X22496Y283646D01*
X21885Y283645D02*
X22191Y283646D01*
X21578Y283644D02*
X21885Y283645D01*
X20961Y283643D02*
X21578Y283644D01*
X20342Y283642D02*
X20961Y283643D01*
X19719Y283641D02*
X20342Y283642D01*
X19092Y283639D02*
X19719Y283641D01*
X18463Y283638D02*
X19092Y283639D01*
X17830Y283637D02*
X18463Y283638D01*
X17194Y283636D02*
X17830Y283637D01*
X16554Y283635D02*
X17194Y283636D01*
X15911Y283634D02*
X16554Y283635D01*
X15265Y283633D02*
X15911Y283634D01*
X14616Y283632D02*
X15265Y283633D01*
X13963Y283631D02*
X14616Y283632D01*
X13307Y283630D02*
X13963Y283631D01*
X12647Y283630D02*
X13307Y283630D01*
X11984Y283629D02*
X12647Y283630D01*
X11318Y283628D02*
X11984Y283629D01*
X10648Y283628D02*
X11318Y283628D01*
X9975Y283627D02*
X10648Y283628D01*
X9299Y283627D02*
X9975Y283627D01*
X8619Y283626D02*
X9299Y283627D01*
X7936Y283626D02*
X8619Y283626D01*
X7250Y283625D02*
X7936Y283626D01*
X6560Y283625D02*
X7250Y283625D01*
X5867Y283624D02*
X6560Y283625D01*
X5170Y283624D02*
X5867Y283624D01*
X4470Y283624D02*
X5170Y283624D01*
X3767Y283623D02*
X4470Y283624D01*
X3060Y283623D02*
X3767Y283623D01*
X2350Y283623D02*
X3060Y283623D01*
X1636Y283623D02*
X2350Y283623D01*
X919Y283623D02*
X1636Y283623D01*
X199Y283623D02*
X919Y283623D01*
X-163Y283623D02*
X199Y283623D01*
X-524D02*
X-163Y283623D01*
X-1244Y283623D02*
X-524Y283623D01*
X-1961Y283623D02*
X-1244Y283623D01*
X-2675Y283623D02*
X-1961Y283623D01*
X-3385Y283623D02*
X-2675Y283623D01*
X-4092Y283623D02*
X-3385Y283623D01*
X-4795Y283624D02*
X-4092Y283623D01*
X-5495Y283624D02*
X-4795Y283624D01*
X-6192Y283624D02*
X-5495Y283624D01*
X-6885Y283625D02*
X-6192Y283624D01*
X-7575Y283625D02*
X-6885Y283625D01*
X-8261Y283626D02*
X-7575Y283625D01*
X-8945Y283626D02*
X-8261Y283626D01*
X-9624Y283627D02*
X-8945Y283626D01*
X-10301Y283627D02*
X-9624Y283627D01*
X-10973Y283628D02*
X-10301Y283627D01*
X-11643Y283628D02*
X-10973Y283628D01*
X-12309Y283629D02*
X-11643Y283628D01*
X-12972Y283630D02*
X-12309Y283629D01*
X-13632Y283630D02*
X-12972Y283630D01*
X-14288Y283631D02*
X-13632Y283630D01*
X-14941Y283632D02*
X-14288Y283631D01*
X-15590Y283633D02*
X-14941Y283632D01*
X-16237Y283634D02*
X-15590Y283633D01*
X-16879Y283635D02*
X-16237Y283634D01*
X-17519Y283636D02*
X-16879Y283635D01*
X-18155Y283637D02*
X-17519Y283636D01*
X-18788Y283638D02*
X-18155Y283637D01*
X-19418Y283639D02*
X-18788Y283638D01*
X-20044Y283641D02*
X-19418Y283639D01*
X-20667Y283642D02*
X-20044Y283641D01*
X-21286Y283643D02*
X-20667Y283642D01*
X-21903Y283644D02*
X-21286Y283643D01*
X-22210Y283645D02*
X-21903Y283644D01*
X-22516Y283646D02*
X-22210Y283645D01*
X-22821Y283646D02*
X-22516Y283646D01*
X-23126Y283647D02*
X-22821Y283646D01*
X-23429Y283648D02*
X-23126Y283647D01*
X-23732Y283649D02*
X-23429Y283648D01*
X-24034Y283649D02*
X-23732Y283649D01*
X-24336Y283650D02*
X-24034Y283649D01*
X-24636Y283651D02*
X-24336Y283650D01*
X-24936Y283652D02*
X-24636Y283651D01*
X-25234Y283652D02*
X-24936Y283652D01*
X-25532Y283653D02*
X-25234Y283652D01*
X-25830Y283654D02*
X-25532Y283653D01*
X-26126Y283655D02*
X-25830Y283654D01*
X-26422Y283656D02*
X-26126Y283655D01*
X-26716Y283657D02*
X-26422Y283656D01*
X-27010Y283657D02*
X-26716Y283657D01*
X-27303Y283658D02*
X-27010Y283657D01*
X-27596Y283659D02*
X-27303Y283658D01*
X-27887Y283660D02*
X-27596Y283659D01*
X-28178Y283661D02*
X-27887Y283660D01*
X-28468Y283662D02*
X-28178Y283661D01*
X-28757Y283663D02*
X-28468Y283662D01*
X-29046Y283664D02*
X-28757Y283663D01*
X-29333Y283665D02*
X-29046Y283664D01*
X-29620Y283666D02*
X-29333Y283665D01*
X-29906Y283667D02*
X-29620Y283666D01*
X-30191Y283668D02*
X-29906Y283667D01*
X-30475Y283669D02*
X-30191Y283668D01*
X-30759Y283670D02*
X-30475Y283669D01*
X-31042Y283671D02*
X-30759Y283670D01*
X-31324Y283672D02*
X-31042Y283671D01*
X-31605Y283673D02*
X-31324Y283672D01*
X-31885Y283674D02*
X-31605Y283673D01*
X-32165Y283675D02*
X-31885Y283674D01*
X-32444Y283676D02*
X-32165Y283675D01*
X-32722Y283677D02*
X-32444Y283676D01*
X-32999Y283678D02*
X-32722Y283677D01*
X-33276Y283679D02*
X-32999Y283678D01*
X-33551Y283680D02*
X-33276Y283679D01*
X-33826Y283682D02*
X-33551Y283680D01*
X-34101Y283683D02*
X-33826Y283682D01*
X-34374Y283684D02*
X-34101Y283683D01*
X-34647Y283685D02*
X-34374Y283684D01*
X-34918Y283686D02*
X-34647Y283685D01*
X-35190Y283687D02*
X-34918Y283686D01*
X-35460Y283689D02*
X-35190Y283687D01*
X-35729Y283690D02*
X-35460Y283689D01*
X-35998Y283691D02*
X-35729Y283690D01*
X-36266Y283692D02*
X-35998Y283691D01*
X-36533Y283694D02*
X-36266Y283692D01*
X-36800Y283695D02*
X-36533Y283694D01*
X-37065Y283696D02*
X-36800Y283695D01*
X-37330Y283698D02*
X-37065Y283696D01*
X-37594Y283699D02*
X-37330Y283698D01*
X-37858Y283700D02*
X-37594Y283699D01*
X-38120Y283701D02*
X-37858Y283700D01*
X-38382Y283703D02*
X-38120Y283701D01*
X-38643Y283704D02*
X-38382Y283703D01*
X-38904Y283706D02*
X-38643Y283704D01*
X-39163Y283707D02*
X-38904Y283706D01*
X-39422Y283709D02*
X-39163Y283707D01*
X-39680Y283710D02*
X-39422Y283709D01*
X-39938Y283711D02*
X-39680Y283710D01*
X-40194Y283713D02*
X-39938Y283711D01*
X-40450Y283714D02*
X-40194Y283713D01*
X-40705Y283716D02*
X-40450Y283714D01*
X-40960Y283717D02*
X-40705Y283716D01*
X-41213Y283719D02*
X-40960Y283717D01*
X-41466Y283720D02*
X-41213Y283719D01*
X-41718Y283722D02*
X-41466Y283720D01*
X-41970Y283723D02*
X-41718Y283722D01*
X-42220Y283725D02*
X-41970Y283723D01*
X-42470Y283727D02*
X-42220Y283725D01*
X-42720Y283728D02*
X-42470Y283727D01*
X-42968Y283730D02*
X-42720Y283728D01*
X-43216Y283731D02*
X-42968Y283730D01*
X-43463Y283733D02*
X-43216Y283731D01*
X-43709Y283735D02*
X-43463Y283733D01*
X-43955Y283736D02*
X-43709Y283735D01*
X-44199Y283738D02*
X-43955Y283736D01*
X-44443Y283740D02*
X-44199Y283738D01*
X-44687Y283741D02*
X-44443Y283740D01*
X-44929Y283743D02*
X-44687Y283741D01*
X-45171Y283745D02*
X-44929Y283743D01*
X-45412Y283747D02*
X-45171Y283745D01*
X-45653Y283748D02*
X-45412Y283747D01*
X-45893Y283750D02*
X-45653Y283748D01*
X-46132Y283752D02*
X-45893Y283750D01*
X-46370Y283754D02*
X-46132Y283752D01*
X-46608Y283755D02*
X-46370Y283754D01*
X-46845Y283757D02*
X-46608Y283755D01*
X-47081Y283759D02*
X-46845Y283757D01*
X-47316Y283761D02*
X-47081Y283759D01*
X-47551Y283763D02*
X-47316Y283761D01*
X-47785Y283765D02*
X-47551Y283763D01*
X-48019Y283767D02*
X-47785Y283765D01*
X-48252Y283769D02*
X-48019Y283767D01*
X-48483Y283771D02*
X-48252Y283769D01*
X-48715Y283773D02*
X-48483Y283771D01*
X-48945Y283775D02*
X-48715Y283773D01*
X-49175Y283777D02*
X-48945Y283775D01*
X-49404Y283779D02*
X-49175Y283777D01*
X-49633Y283781D02*
X-49404Y283779D01*
X-49861Y283783D02*
X-49633Y283781D01*
X-50088Y283785D02*
X-49861Y283783D01*
X-50314Y283787D02*
X-50088Y283785D01*
X-50540Y283789D02*
X-50314Y283787D01*
X-50765Y283791D02*
X-50540Y283789D01*
X-50990Y283793D02*
X-50765Y283791D01*
X-51214Y283795D02*
X-50990Y283793D01*
X-51437Y283797D02*
X-51214Y283795D01*
X-51659Y283800D02*
X-51437Y283797D01*
X-51881Y283802D02*
X-51659Y283800D01*
X-52102Y283804D02*
X-51881Y283802D01*
X-52322Y283806D02*
X-52102Y283804D01*
X-52542Y283808D02*
X-52322Y283806D01*
X-52761Y283811D02*
X-52542Y283808D01*
X-52979Y283813D02*
X-52761Y283811D01*
X-53197Y283815D02*
X-52979Y283813D01*
X-53414Y283818D02*
X-53197Y283815D01*
X-53630Y283820D02*
X-53414Y283818D01*
X-53846Y283822D02*
X-53630Y283820D01*
X-54061Y283825D02*
X-53846Y283822D01*
X-54276Y283827D02*
X-54061Y283825D01*
X-54489Y283829D02*
X-54276Y283827D01*
X-54702Y283832D02*
X-54489Y283829D01*
X-54915Y283834D02*
X-54702Y283832D01*
X-55127Y283837D02*
X-54915Y283834D01*
X-55338Y283839D02*
X-55127Y283837D01*
X-55548Y283841D02*
X-55338Y283839D01*
X-55758Y283844D02*
X-55548Y283841D01*
X-55967Y283846D02*
X-55758Y283844D01*
X-56176Y283849D02*
X-55967Y283846D01*
X-56384Y283852D02*
X-56176Y283849D01*
X-56591Y283854D02*
X-56384Y283852D01*
X-56798Y283857D02*
X-56591Y283854D01*
X-57004Y283859D02*
X-56798Y283857D01*
X-57209Y283862D02*
X-57004Y283859D01*
X-57414Y283865D02*
X-57209Y283862D01*
X-57618Y283867D02*
X-57414Y283865D01*
X-57822Y283870D02*
X-57618Y283867D01*
X-58025Y283873D02*
X-57822Y283870D01*
X-58227Y283875D02*
X-58025Y283873D01*
X-58429Y283878D02*
X-58227Y283875D01*
X-58630Y283881D02*
X-58429Y283878D01*
X-58830Y283884D02*
X-58630Y283881D01*
X-59030Y283886D02*
X-58830Y283884D01*
X-59229Y283889D02*
X-59030Y283886D01*
X-59428Y283892D02*
X-59229Y283889D01*
X-59626Y283895D02*
X-59428Y283892D01*
X-59823Y283898D02*
X-59626Y283895D01*
X-60020Y283900D02*
X-59823Y283898D01*
X-60216Y283903D02*
X-60020Y283900D01*
X-60411Y283906D02*
X-60216Y283903D01*
X-60606Y283909D02*
X-60411Y283906D01*
X-60801Y283912D02*
X-60606Y283909D01*
X-60994Y283915D02*
X-60801Y283912D01*
X-61187Y283918D02*
X-60994Y283915D01*
X-61380Y283921D02*
X-61187Y283918D01*
X-61572Y283924D02*
X-61380Y283921D01*
X-61763Y283927D02*
X-61572Y283924D01*
X-61954Y283930D02*
X-61763Y283927D01*
X-62144Y283933D02*
X-61954Y283930D01*
X-62334Y283937D02*
X-62144Y283933D01*
X-62523Y283940D02*
X-62334Y283937D01*
X-62711Y283943D02*
X-62523Y283940D01*
X-62899Y283946D02*
X-62711Y283943D01*
X-63087Y283949D02*
X-62899Y283946D01*
X-63273Y283952D02*
X-63087Y283949D01*
X-63459Y283956D02*
X-63273Y283952D01*
X-63645Y283959D02*
X-63459Y283956D01*
X-63830Y283962D02*
X-63645Y283959D01*
X-64014Y283965D02*
X-63830Y283962D01*
X-64198Y283969D02*
X-64014Y283965D01*
X-64381Y283972D02*
X-64198Y283969D01*
X-64564Y283976D02*
X-64381Y283972D01*
X-64746Y283979D02*
X-64564Y283976D01*
X-64928Y283982D02*
X-64746Y283979D01*
X-65109Y283986D02*
X-64928Y283982D01*
X-65290Y283989D02*
X-65109Y283986D01*
X-65469Y283993D02*
X-65290Y283989D01*
X-65649Y283996D02*
X-65469Y283993D01*
X-65828Y284000D02*
X-65649Y283996D01*
X-66006Y284003D02*
X-65828Y284000D01*
X-66184Y284007D02*
X-66006Y284003D01*
X-66361Y284010D02*
X-66184Y284007D01*
X-66538Y284014D02*
X-66361Y284010D01*
X-66714Y284017D02*
X-66538Y284014D01*
X-66889Y284021D02*
X-66714Y284017D01*
X-67064Y284025D02*
X-66889Y284021D01*
X-67239Y284029D02*
X-67064Y284025D01*
X-67413Y284032D02*
X-67239Y284029D01*
X-67586Y284036D02*
X-67413Y284032D01*
X-67759Y284040D02*
X-67586Y284036D01*
X-67932Y284043D02*
X-67759Y284040D01*
X-68103Y284047D02*
X-67932Y284043D01*
X-68275Y284051D02*
X-68103Y284047D01*
X-68446Y284055D02*
X-68275Y284051D01*
X-68616Y284059D02*
X-68446Y284055D01*
X-68786Y284063D02*
X-68616Y284059D01*
X-68955Y284067D02*
X-68786Y284063D01*
X-69124Y284070D02*
X-68955Y284067D01*
X-69292Y284074D02*
X-69124Y284070D01*
X-69460Y284078D02*
X-69292Y284074D01*
X-69627Y284082D02*
X-69460Y284078D01*
X-69794Y284086D02*
X-69627Y284082D01*
X-69960Y284090D02*
X-69794Y284086D01*
X-70126Y284095D02*
X-69960Y284090D01*
X-70291Y284099D02*
X-70126Y284095D01*
X-70455Y284103D02*
X-70291Y284099D01*
X-70620Y284107D02*
X-70455Y284103D01*
X-70947Y284115D02*
X-70620Y284107D01*
X-71272Y284124D02*
X-70947Y284115D01*
X-71595Y284132D02*
X-71272Y284124D01*
X-71916Y284141D02*
X-71595Y284132D01*
X-72235Y284150D02*
X-71916Y284141D01*
X-72552Y284159D02*
X-72235Y284150D01*
X-72868Y284168D02*
X-72552Y284159D01*
X-73181Y284177D02*
X-72868Y284168D01*
X-73493Y284186D02*
X-73181Y284177D01*
X-73803Y284195D02*
X-73493Y284186D01*
X-74111Y284204D02*
X-73803Y284195D01*
X-74417Y284214D02*
X-74111Y284204D01*
X-74721Y284223D02*
X-74417Y284214D01*
X-75024Y284233D02*
X-74721Y284223D01*
X-75324Y284243D02*
X-75024Y284233D01*
X-75624Y284253D02*
X-75324Y284243D01*
X-75921Y284263D02*
X-75624Y284253D01*
X-76217Y284273D02*
X-75921Y284263D01*
X-76510Y284283D02*
X-76217Y284273D01*
X-76803Y284293D02*
X-76510Y284283D01*
X-77093Y284304D02*
X-76803Y284293D01*
X-77382Y284314D02*
X-77093Y284304D01*
X-77669Y284325D02*
X-77382Y284314D01*
X-77955Y284336D02*
X-77669Y284325D01*
X-78239Y284347D02*
X-77955Y284336D01*
X-78521Y284358D02*
X-78239Y284347D01*
X-78802Y284369D02*
X-78521Y284358D01*
X-79081Y284380D02*
X-78802Y284369D01*
X-79359Y284391D02*
X-79081Y284380D01*
X-79635Y284403D02*
X-79359Y284391D01*
X-79910Y284414D02*
X-79635Y284403D01*
X-80183Y284426D02*
X-79910Y284414D01*
X-80455Y284438D02*
X-80183Y284426D01*
X-80725Y284450D02*
X-80455Y284438D01*
X-80994Y284461D02*
X-80725Y284450D01*
X-81261Y284474D02*
X-80994Y284461D01*
X-81527Y284486D02*
X-81261Y284474D01*
X-81791Y284498D02*
X-81527Y284486D01*
X-82054Y284511D02*
X-81791Y284498D01*
X-82316Y284524D02*
X-82054Y284511D01*
X-82576Y284536D02*
X-82316Y284524D01*
X-82835Y284549D02*
X-82576Y284536D01*
X-83093Y284562D02*
X-82835Y284549D01*
X-83349Y284575D02*
X-83093Y284562D01*
X-83604Y284589D02*
X-83349Y284575D01*
X-83857Y284602D02*
X-83604Y284589D01*
X-84110Y284616D02*
X-83857Y284602D01*
X-84361Y284629D02*
X-84110Y284616D01*
X-84610Y284643D02*
X-84361Y284629D01*
X-84859Y284657D02*
X-84610Y284643D01*
X-85106Y284671D02*
X-84859Y284657D01*
X-85353Y284685D02*
X-85106Y284671D01*
X-85597Y284700D02*
X-85353Y284685D01*
X-85841Y284714D02*
X-85597Y284700D01*
X-86084Y284729D02*
X-85841Y284714D01*
X-86325Y284743D02*
X-86084Y284729D01*
X-86566Y284758D02*
X-86325Y284743D01*
X-86805Y284773D02*
X-86566Y284758D01*
X-87043Y284788D02*
X-86805Y284773D01*
X-87280Y284804D02*
X-87043Y284788D01*
X-87515Y284819D02*
X-87280Y284804D01*
X-87750Y284835D02*
X-87515Y284819D01*
X-87984Y284850D02*
X-87750Y284835D01*
X-88217Y284866D02*
X-87984Y284850D01*
X-88448Y284882D02*
X-88217Y284866D01*
X-88679Y284898D02*
X-88448Y284882D01*
X-88909Y284915D02*
X-88679Y284898D01*
X-89137Y284931D02*
X-88909Y284915D01*
X-89365Y284948D02*
X-89137Y284931D01*
X-89592Y284964D02*
X-89365Y284948D01*
X-89817Y284981D02*
X-89592Y284964D01*
X-90042Y284998D02*
X-89817Y284981D01*
X-90266Y285015D02*
X-90042Y284998D01*
X-90489Y285033D02*
X-90266Y285015D01*
X-90711Y285050D02*
X-90489Y285033D01*
X-90933Y285068D02*
X-90711Y285050D01*
X-91263Y285094D02*
X-90933Y285068D01*
X-91591Y285121D02*
X-91263Y285094D01*
X-91917Y285149D02*
X-91591Y285121D01*
X-92242Y285177D02*
X-91917Y285149D01*
X-92565Y285205D02*
X-92242Y285177D01*
X-92886Y285233D02*
X-92565Y285205D01*
X-93205Y285262D02*
X-92886Y285233D01*
X-93523Y285291D02*
X-93205Y285262D01*
X-93839Y285321D02*
X-93523Y285291D01*
X-94153Y285350D02*
X-93839Y285321D01*
X-94466Y285381D02*
X-94153Y285350D01*
X-94778Y285411D02*
X-94466Y285381D01*
X-95088Y285442D02*
X-94778Y285411D01*
X-95396Y285474D02*
X-95088Y285442D01*
X-95806Y285516D02*
X-95396Y285474D01*
X-96213Y285559D02*
X-95806Y285516D01*
X-96617Y285603D02*
X-96213Y285559D01*
X-97020Y285647D02*
X-96617Y285603D01*
X-97420Y285692D02*
X-97020Y285647D01*
X-97917Y285750D02*
X-97420Y285692D01*
X-98412Y285808D02*
X-97917Y285750D01*
X-99002Y285880D02*
X-98412Y285808D01*
X-99587Y285953D02*
X-99002Y285880D01*
X-100266Y286040D02*
X-99587Y285953D01*
X-101037Y286143D02*
X-100266Y286040D01*
X-101992Y286275D02*
X-101037Y286143D01*
X-103318Y286469D02*
X-101992Y286275D01*
X-106399Y286962D02*
X-106399D01*
X-111541Y287924D02*
X-110172Y287650D01*
X-112451Y288112D02*
X-111541Y287924D01*
X-113178Y288267D02*
X-112451Y288112D01*
X-113812Y288405D02*
X-113178Y288267D01*
X-114355Y288525D02*
X-113812Y288405D01*
X-114806Y288627D02*
X-114355Y288525D01*
X-115257Y288730D02*
X-114806Y288627D01*
X-115707Y288835D02*
X-115257Y288730D01*
X-116066Y288919D02*
X-115707Y288835D01*
X-116425Y289004D02*
X-116066Y288919D01*
X-116783Y289090D02*
X-116425Y289004D01*
X-117140Y289177D02*
X-116783Y289090D01*
X-117408Y289243D02*
X-117140Y289177D01*
X-117675Y289309D02*
X-117408Y289243D01*
X-117941Y289376D02*
X-117675Y289309D01*
X-118208Y289443D02*
X-117941Y289376D01*
X-118473Y289511D02*
X-118208Y289443D01*
X-118739Y289579D02*
X-118473Y289511D01*
X-119003Y289647D02*
X-118739Y289579D01*
X-119267Y289716D02*
X-119003Y289647D01*
X-119531Y289786D02*
X-119267Y289716D01*
X-119794Y289856D02*
X-119531Y289786D01*
X-120056Y289926D02*
X-119794Y289856D01*
X-120231Y289973D02*
X-120056Y289926D01*
X-120405Y290021D02*
X-120231Y289973D01*
X-120579Y290068D02*
X-120405Y290021D01*
X-120753Y290116D02*
X-120579Y290068D01*
X-120926Y290164D02*
X-120753Y290116D01*
X-121099Y290212D02*
X-120926Y290164D01*
X-121272Y290261D02*
X-121099Y290212D01*
X-121444Y290310D02*
X-121272Y290261D01*
X-121616Y290358D02*
X-121444Y290310D01*
X-121788Y290407D02*
X-121616Y290358D01*
X-121959Y290457D02*
X-121788Y290407D01*
X-122130Y290506D02*
X-121959Y290457D01*
X-122300Y290556D02*
X-122130Y290506D01*
X-122470Y290605D02*
X-122300Y290556D01*
X-122640Y290655D02*
X-122470Y290605D01*
X-122810Y290706D02*
X-122640Y290655D01*
X-122978Y290756D02*
X-122810Y290706D01*
X-123147Y290807D02*
X-122978Y290756D01*
X-123315Y290858D02*
X-123147Y290807D01*
X-123482Y290909D02*
X-123315Y290858D01*
X-123649Y290960D02*
X-123482Y290909D01*
X-123816Y291011D02*
X-123649Y290960D01*
X-123982Y291063D02*
X-123816Y291011D01*
X-124148Y291115D02*
X-123982Y291063D01*
X-124313Y291167D02*
X-124148Y291115D01*
X-124478Y291219D02*
X-124313Y291167D01*
X-124642Y291271D02*
X-124478Y291219D01*
X-124805Y291324D02*
X-124642Y291271D01*
X-124968Y291377D02*
X-124805Y291324D01*
X-125131Y291430D02*
X-124968Y291377D01*
X-125293Y291483D02*
X-125131Y291430D01*
X-125454Y291536D02*
X-125293Y291483D01*
X-125615Y291590D02*
X-125454Y291536D01*
X-125775Y291644D02*
X-125615Y291590D01*
X-125935Y291698D02*
X-125775Y291644D01*
X-126094Y291752D02*
X-125935Y291698D01*
X-126252Y291806D02*
X-126094Y291752D01*
X-126410Y291861D02*
X-126252Y291806D01*
X-126567Y291915D02*
X-126410Y291861D01*
X-126724Y291970D02*
X-126567Y291915D01*
X-126880Y292025D02*
X-126724Y291970D01*
X-127035Y292081D02*
X-126880Y292025D01*
X-127190Y292136D02*
X-127035Y292081D01*
X-127343Y292192D02*
X-127190Y292136D01*
X-127497Y292248D02*
X-127343Y292192D01*
X-127649Y292304D02*
X-127497Y292248D01*
X-127801Y292360D02*
X-127649Y292304D01*
X-127952Y292417D02*
X-127801Y292360D01*
X-128102Y292473D02*
X-127952Y292417D01*
X-128252Y292530D02*
X-128102Y292473D01*
X-128401Y292587D02*
X-128252Y292530D01*
X-128549Y292644D02*
X-128401Y292587D01*
X-128696Y292702D02*
X-128549Y292644D01*
X-128842Y292759D02*
X-128696Y292702D01*
X-128988Y292817D02*
X-128842Y292759D01*
X-129133Y292875D02*
X-128988Y292817D01*
X-129277Y292933D02*
X-129133Y292875D01*
X-129349Y292962D02*
X-129277Y292933D01*
X-129420Y292991D02*
X-129349Y292962D01*
X-129492Y293021D02*
X-129420Y292991D01*
X-129563Y293050D02*
X-129492Y293021D01*
X-129634Y293079D02*
X-129563Y293050D01*
X-129704Y293109D02*
X-129634Y293079D01*
X-129775Y293138D02*
X-129704Y293109D01*
X-129845Y293167D02*
X-129775Y293138D01*
X-129915Y293197D02*
X-129845Y293167D01*
X-129985Y293227D02*
X-129915Y293197D01*
X-130055Y293256D02*
X-129985Y293227D01*
X-130124Y293286D02*
X-130055Y293256D01*
X-130193Y293316D02*
X-130124Y293286D01*
X-130262Y293345D02*
X-130193Y293316D01*
X-130331Y293375D02*
X-130262Y293345D01*
X-130400Y293405D02*
X-130331Y293375D01*
X-130468Y293435D02*
X-130400Y293405D01*
X-130536Y293465D02*
X-130468Y293435D01*
X-130604Y293495D02*
X-130536Y293465D01*
X-130672Y293525D02*
X-130604Y293495D01*
X-130739Y293555D02*
X-130672Y293525D01*
X-130806Y293585D02*
X-130739Y293555D01*
X-130873Y293615D02*
X-130806Y293585D01*
X-130940Y293645D02*
X-130873Y293615D01*
X-131006Y293675D02*
X-130940Y293645D01*
X-131073Y293706D02*
X-131006Y293675D01*
X-131139Y293736D02*
X-131073Y293706D01*
X-131204Y293766D02*
X-131139Y293736D01*
X-131270Y293797D02*
X-131204Y293766D01*
X-131335Y293827D02*
X-131270Y293797D01*
X-131400Y293858D02*
X-131335Y293827D01*
X-131465Y293888D02*
X-131400Y293858D01*
X-131530Y293919D02*
X-131465Y293888D01*
X-131594Y293949D02*
X-131530Y293919D01*
X-131658Y293980D02*
X-131594Y293949D01*
X-131722Y294011D02*
X-131658Y293980D01*
X-131786Y294041D02*
X-131722Y294011D01*
X-131849Y294072D02*
X-131786Y294041D01*
X-131912Y294103D02*
X-131849Y294072D01*
X-131975Y294134D02*
X-131912Y294103D01*
X-132038Y294165D02*
X-131975Y294134D01*
X-132100Y294196D02*
X-132038Y294165D01*
X-132162Y294227D02*
X-132100Y294196D01*
X-132224Y294258D02*
X-132162Y294227D01*
X-132285Y294289D02*
X-132224Y294258D01*
X-132347Y294320D02*
X-132285Y294289D01*
X-132408Y294352D02*
X-132347Y294320D01*
X-132469Y294383D02*
X-132408Y294352D01*
X-132529Y294414D02*
X-132469Y294383D01*
X-132590Y294445D02*
X-132529Y294414D01*
X-132650Y294477D02*
X-132590Y294445D01*
X-132710Y294508D02*
X-132650Y294477D01*
X-132769Y294540D02*
X-132710Y294508D01*
X-132828Y294571D02*
X-132769Y294540D01*
X-132887Y294603D02*
X-132828Y294571D01*
X-132946Y294634D02*
X-132887Y294603D01*
X-133004Y294666D02*
X-132946Y294634D01*
X-133063Y294698D02*
X-133004Y294666D01*
X-133121Y294729D02*
X-133063Y294698D01*
X-133178Y294761D02*
X-133121Y294729D01*
X-133236Y294793D02*
X-133178Y294761D01*
X-133293Y294825D02*
X-133236Y294793D01*
X-133350Y294857D02*
X-133293Y294825D01*
X-133406Y294889D02*
X-133350Y294857D01*
X-133463Y294921D02*
X-133406Y294889D01*
X-133519Y294953D02*
X-133463Y294921D01*
X-133574Y294985D02*
X-133519Y294953D01*
X-133630Y295017D02*
X-133574Y294985D01*
X-133685Y295049D02*
X-133630Y295017D01*
X-133740Y295081D02*
X-133685Y295049D01*
X-133795Y295114D02*
X-133740Y295081D01*
X-133849Y295146D02*
X-133795Y295114D01*
X-133903Y295178D02*
X-133849Y295146D01*
X-133957Y295211D02*
X-133903Y295178D01*
X-134010Y295243D02*
X-133957Y295211D01*
X-134064Y295276D02*
X-134010Y295243D01*
X-134117Y295308D02*
X-134064Y295276D01*
X-134169Y295341D02*
X-134117Y295308D01*
X-134222Y295373D02*
X-134169Y295341D01*
X-134274Y295406D02*
X-134222Y295373D01*
X-134326Y295439D02*
X-134274Y295406D01*
X-134377Y295471D02*
X-134326Y295439D01*
X-134428Y295504D02*
X-134377Y295471D01*
X-134479Y295537D02*
X-134428Y295504D01*
X-134530Y295570D02*
X-134479Y295537D01*
X-134580Y295603D02*
X-134530Y295570D01*
X-134630Y295636D02*
X-134580Y295603D01*
X-134680Y295669D02*
X-134630Y295636D01*
X-134730Y295702D02*
X-134680Y295669D01*
X-134779Y295735D02*
X-134730Y295702D01*
X-134828Y295768D02*
X-134779Y295735D01*
X-134876Y295801D02*
X-134828Y295768D01*
X-134924Y295834D02*
X-134876Y295801D01*
X-134973Y295867D02*
X-134924Y295834D01*
X-135020Y295901D02*
X-134973Y295867D01*
X-135068Y295934D02*
X-135020Y295901D01*
X-135115Y295967D02*
X-135068Y295934D01*
X-135162Y296001D02*
X-135115Y295967D01*
X-135208Y296034D02*
X-135162Y296001D01*
X-135254Y296068D02*
X-135208Y296034D01*
X-135300Y296101D02*
X-135254Y296068D01*
X-135346Y296135D02*
X-135300Y296101D01*
X-135391Y296168D02*
X-135346Y296135D01*
X-135436Y296202D02*
X-135391Y296168D01*
X-135481Y296236D02*
X-135436Y296202D01*
X-135525Y296269D02*
X-135481Y296236D01*
X-135569Y296303D02*
X-135525Y296269D01*
X-135613Y296337D02*
X-135569Y296303D01*
X-135656Y296371D02*
X-135613Y296337D01*
X-135700Y296405D02*
X-135656Y296371D01*
X-135742Y296439D02*
X-135700Y296405D01*
X-135785Y296473D02*
X-135742Y296439D01*
X-135827Y296507D02*
X-135785Y296473D01*
X-135869Y296541D02*
X-135827Y296507D01*
X-135911Y296575D02*
X-135869Y296541D01*
X-135952Y296609D02*
X-135911Y296575D01*
X-135993Y296644D02*
X-135952Y296609D01*
X-136034Y296678D02*
X-135993Y296644D01*
X-136074Y296712D02*
X-136034Y296678D01*
X-136114Y296746D02*
X-136074Y296712D01*
X-136154Y296781D02*
X-136114Y296746D01*
X-136194Y296815D02*
X-136154Y296781D01*
X-136233Y296850D02*
X-136194Y296815D01*
X-136272Y296884D02*
X-136233Y296850D01*
X-136310Y296919D02*
X-136272Y296884D01*
X-136348Y296953D02*
X-136310Y296919D01*
X-136386Y296988D02*
X-136348Y296953D01*
X-136424Y297023D02*
X-136386Y296988D01*
X-136461Y297057D02*
X-136424Y297023D01*
X-136498Y297092D02*
X-136461Y297057D01*
X-136535Y297127D02*
X-136498Y297092D01*
X-136571Y297162D02*
X-136535Y297127D01*
X-136607Y297197D02*
X-136571Y297162D01*
X-136643Y297232D02*
X-136607Y297197D01*
X-136678Y297267D02*
X-136643Y297232D01*
X-136713Y297302D02*
X-136678Y297267D01*
X-136748Y297337D02*
X-136713Y297302D01*
X-136782Y297372D02*
X-136748Y297337D01*
X-136816Y297407D02*
X-136782Y297372D01*
X-136850Y297442D02*
X-136816Y297407D01*
X-136883Y297477D02*
X-136850Y297442D01*
X-136917Y297513D02*
X-136883Y297477D01*
X-136950Y297548D02*
X-136917Y297513D01*
X-136982Y297583D02*
X-136950Y297548D01*
X-137014Y297619D02*
X-136982Y297583D01*
X-137046Y297654D02*
X-137014Y297619D01*
X-137078Y297689D02*
X-137046Y297654D01*
X-137109Y297725D02*
X-137078Y297689D01*
X-137171Y297796D02*
X-137109Y297725D01*
X-198588Y288347D02*
X-137171Y297796D01*
X-199189Y287954D02*
X-198588Y288347D01*
X-199785Y287562D02*
X-199189Y287954D01*
X-200378Y287171D02*
X-199785Y287562D01*
X-200967Y286781D02*
X-200378Y287171D01*
X-201551Y286392D02*
X-200967Y286781D01*
X-202132Y286003D02*
X-201551Y286392D01*
X-202708Y285616D02*
X-202132Y286003D01*
X-203281Y285229D02*
X-202708Y285616D01*
X-203849Y284844D02*
X-203281Y285229D01*
X-204414Y284459D02*
X-203849Y284844D01*
X-204974Y284075D02*
X-204414Y284459D01*
X-205531Y283692D02*
X-204974Y284075D01*
X-206083Y283309D02*
X-205531Y283692D01*
X-206631Y282928D02*
X-206083Y283309D01*
X-207176Y282547D02*
X-206631Y282928D01*
X-207717Y282167D02*
X-207176Y282547D01*
X-208253Y281787D02*
X-207717Y282167D01*
X-208786Y281408D02*
X-208253Y281787D01*
X-209315Y281030D02*
X-208786Y281408D01*
X-209840Y280653D02*
X-209315Y281030D01*
X-210361Y280276D02*
X-209840Y280653D01*
X-210878Y279899D02*
X-210361Y280276D01*
X-211392Y279523D02*
X-210878Y279899D01*
X-211902Y279148D02*
X-211392Y279523D01*
X-212408Y278773D02*
X-211902Y279148D01*
X-212910Y278398D02*
X-212408Y278773D01*
X-213408Y278024D02*
X-212910Y278398D01*
X-213903Y277650D02*
X-213408Y278024D01*
X-214394Y277276D02*
X-213903Y277650D01*
X-214881Y276903D02*
X-214394Y277276D01*
X-215365Y276530D02*
X-214881Y276903D01*
X-215845Y276156D02*
X-215365Y276530D01*
X-216321Y275783D02*
X-215845Y276156D01*
X-216794Y275410D02*
X-216321Y275783D01*
X-217264Y275037D02*
X-216794Y275410D01*
X-217730Y274664D02*
X-217264Y275037D01*
X-218192Y274290D02*
X-217730Y274664D01*
X-218651Y273917D02*
X-218192Y274290D01*
X-219107Y273543D02*
X-218651Y273917D01*
X-219559Y273169D02*
X-219107Y273543D01*
X-220007Y272795D02*
X-219559Y273169D01*
X-220453Y272420D02*
X-220007Y272795D01*
X-220895Y272045D02*
X-220453Y272420D01*
X-221334Y271669D02*
X-220895Y272045D01*
X-221770Y271292D02*
X-221334Y271669D01*
X-222202Y270916D02*
X-221770Y271292D01*
X-222632Y270538D02*
X-222202Y270916D01*
X-223058Y270159D02*
X-222632Y270538D01*
X-223481Y269780D02*
X-223058Y270159D01*
X-223901Y269399D02*
X-223481Y269780D01*
X-224318Y269018D02*
X-223901Y269399D01*
X-224732Y268636D02*
X-224318Y269018D01*
X-225144Y268252D02*
X-224732Y268636D01*
X-225552Y267868D02*
X-225144Y268252D01*
X-225957Y267482D02*
X-225552Y267868D01*
X-226360Y267094D02*
X-225957Y267482D01*
X-226760Y266706D02*
X-226360Y267094D01*
X-227157Y266316D02*
X-226760Y266706D01*
X-227552Y265924D02*
X-227157Y266316D01*
X-227943Y265531D02*
X-227552Y265924D01*
X-228332Y265136D02*
X-227943Y265531D01*
X-229103Y264341D02*
X-228332Y265136D01*
X-229863Y263538D02*
X-229103Y264341D01*
X-230614Y262727D02*
X-229863Y263538D01*
X-231356Y261908D02*
X-230614Y262727D01*
X-231356Y261908D02*
X-231356D01*
X-235629Y256769D02*
X-235629D01*
X-236315Y255870D02*
X-235629Y256769D01*
X-236995Y254958D02*
X-236315Y255870D01*
X-237668Y254030D02*
X-236995Y254958D01*
X-238335Y253088D02*
X-237668Y254030D01*
X-238667Y252611D02*
X-238335Y253088D01*
X-238998Y252130D02*
X-238667Y252611D01*
X-239327Y251645D02*
X-238998Y252130D01*
X-239655Y251156D02*
X-239327Y251645D01*
X-239982Y250662D02*
X-239655Y251156D01*
X-240307Y250165D02*
X-239982Y250662D01*
X-240632Y249662D02*
X-240307Y250165D01*
X-240955Y249156D02*
X-240632Y249662D01*
X-241278Y248644D02*
X-240955Y249156D01*
X-241600Y248129D02*
X-241278Y248644D01*
X-241920Y247608D02*
X-241600Y248129D01*
X-242240Y247082D02*
X-241920Y247608D01*
X-242559Y246552D02*
X-242240Y247082D01*
X-242878Y246017D02*
X-242559Y246552D01*
X-243195Y245477D02*
X-242878Y246017D01*
X-243512Y244932D02*
X-243195Y245477D01*
X-243828Y244381D02*
X-243512Y244932D01*
X-244144Y243825D02*
X-243828Y244381D01*
X-244459Y243264D02*
X-244144Y243825D01*
X-244773Y242698D02*
X-244459Y243264D01*
X-245088Y242126D02*
X-244773Y242698D01*
X-245401Y241549D02*
X-245088Y242126D01*
X-245714Y240966D02*
X-245401Y241549D01*
X-246027Y240377D02*
X-245714Y240966D01*
X-246340Y239782D02*
X-246027Y240377D01*
X-246653Y239182D02*
X-246340Y239782D01*
X-246965Y238576D02*
X-246653Y239182D01*
X-247277Y237964D02*
X-246965Y238576D01*
X-247589Y237346D02*
X-247277Y237964D01*
X-247901Y236722D02*
X-247589Y237346D01*
X-248212Y236091D02*
X-247901Y236722D01*
X-248524Y235455D02*
X-248212Y236091D01*
X-248836Y234812D02*
X-248524Y235455D01*
X-249148Y234163D02*
X-248836Y234812D01*
X-249460Y233507D02*
X-249148Y234163D01*
X-249772Y232845D02*
X-249460Y233507D01*
X-250084Y232176D02*
X-249772Y232845D01*
X-250397Y231501D02*
X-250084Y232176D01*
X-250710Y230820D02*
X-250397Y231501D01*
X-251023Y230131D02*
X-250710Y230820D01*
X-251336Y229436D02*
X-251023Y230131D01*
X-251650Y228734D02*
X-251336Y229436D01*
X-251964Y228025D02*
X-251650Y228734D01*
X-252279Y227309D02*
X-251964Y228025D01*
X-252594Y226586D02*
X-252279Y227309D01*
X-252909Y225856D02*
X-252594Y226586D01*
X-253226Y225119D02*
X-252909Y225856D01*
X-253542Y224375D02*
X-253226Y225119D01*
X-253860Y223624D02*
X-253542Y224375D01*
X-254178Y222865D02*
X-253860Y223624D01*
X-254496Y222100D02*
X-254178Y222865D01*
X-254816Y221327D02*
X-254496Y222100D01*
X-255136Y220546D02*
X-254816Y221327D01*
X-255456Y219759D02*
X-255136Y220546D01*
X-255778Y218964D02*
X-255456Y219759D01*
X-256100Y218161D02*
X-255778Y218964D01*
X-256424Y217351D02*
X-256100Y218161D01*
X-256748Y216533D02*
X-256424Y217351D01*
X-257073Y215708D02*
X-256748Y216533D01*
X-257399Y214875D02*
X-257073Y215708D01*
X-257725Y214035D02*
X-257399Y214875D01*
X-258053Y213187D02*
X-257725Y214035D01*
X-258382Y212331D02*
X-258053Y213187D01*
X-258712Y211467D02*
X-258382Y212331D01*
X-259042Y210596D02*
X-258712Y211467D01*
X-259374Y209717D02*
X-259042Y210596D01*
X-259707Y208830D02*
X-259374Y209717D01*
X-260041Y207936D02*
X-259707Y208830D01*
X-260376Y207033D02*
X-260041Y207936D01*
X-260712Y206123D02*
X-260376Y207033D01*
X-261050Y205205D02*
X-260712Y206123D01*
X-261388Y204279D02*
X-261050Y205205D01*
X-261728Y203345D02*
X-261388Y204279D01*
X-262069Y202404D02*
X-261728Y203345D01*
X-262411Y201454D02*
X-262069Y202404D01*
X-262754Y200496D02*
X-262411Y201454D01*
X-263099Y199531D02*
X-262754Y200496D01*
X-263444Y198557D02*
X-263099Y199531D01*
X-263791Y197576D02*
X-263444Y198557D01*
X-264140Y196587D02*
X-263791Y197576D01*
X-264489Y195590D02*
X-264140Y196587D01*
X-264840Y194585D02*
X-264489Y195590D01*
X-265192Y193571D02*
X-264840Y194585D01*
X-265546Y192551D02*
X-265192Y193571D01*
X-265900Y191522D02*
X-265546Y192551D01*
X-266256Y190485D02*
X-265900Y191522D01*
X-266614Y189440D02*
X-266256Y190485D01*
X-266972Y188387D02*
X-266614Y189440D01*
X-267333Y187327D02*
X-266972Y188387D01*
X-267694Y186259D02*
X-267333Y187327D01*
X-268057Y185182D02*
X-267694Y186259D01*
X-268421Y184098D02*
X-268057Y185182D01*
X-268786Y183007D02*
X-268421Y184098D01*
X-269153Y181907D02*
X-268786Y183007D01*
X-269521Y180799D02*
X-269153Y181907D01*
X-269890Y179684D02*
X-269521Y180799D01*
X-270261Y178561D02*
X-269890Y179684D01*
X-270633Y177431D02*
X-270261Y178561D01*
X-271006Y176293D02*
X-270633Y177431D01*
X-271381Y175147D02*
X-271006Y176293D01*
X-271757Y173993D02*
X-271381Y175147D01*
X-272134Y172832D02*
X-271757Y173993D01*
X-272513Y171663D02*
X-272134Y172832D01*
X-272892Y170487D02*
X-272513Y171663D01*
X-273274Y169304D02*
X-272892Y170487D01*
X-273656Y168113D02*
X-273274Y169304D01*
X-274040Y166914D02*
X-273656Y168113D01*
X-274425Y165708D02*
X-274040Y166914D01*
X-274811Y164495D02*
X-274425Y165708D01*
X-275199Y163275D02*
X-274811Y164495D01*
X-275588Y162047D02*
X-275199Y163275D01*
X-275978Y160812D02*
X-275588Y162047D01*
X-276369Y159570D02*
X-275978Y160812D01*
X-276761Y158320D02*
X-276369Y159570D01*
X-277155Y157064D02*
X-276761Y158320D01*
X-277550Y155801D02*
X-277155Y157064D01*
X-277946Y154530D02*
X-277550Y155801D01*
X-278343Y153253D02*
X-277946Y154530D01*
X-278741Y151969D02*
X-278343Y153253D01*
X-279141Y150678D02*
X-278741Y151969D01*
X-279541Y149380D02*
X-279141Y150678D01*
X-279943Y148076D02*
X-279541Y149380D01*
X-280346Y146765D02*
X-279943Y148076D01*
X-280750Y145447D02*
X-280346Y146765D01*
X-281154Y144123D02*
X-280750Y145447D01*
X-281560Y142792D02*
X-281154Y144123D01*
X-281967Y141455D02*
X-281560Y142792D01*
X-282375Y140111D02*
X-281967Y141455D01*
X-282784Y138761D02*
X-282375Y140111D01*
X-283194Y137405D02*
X-282784Y138761D01*
X-283605Y136042D02*
X-283194Y137405D01*
X-284016Y134674D02*
X-283605Y136042D01*
X-284429Y133299D02*
X-284016Y134674D01*
X-284842Y131919D02*
X-284429Y133299D01*
X-285671Y129140D02*
X-284842Y131919D01*
X-286504Y126338D02*
X-285671Y129140D01*
X-287340Y123513D02*
X-286504Y126338D01*
X-288178Y120667D02*
X-287340Y123513D01*
X-289019Y117798D02*
X-288178Y120667D01*
X-290285Y113457D02*
X-289019Y117798D01*
X-291556Y109071D02*
X-290285Y113457D01*
X-296669Y91120D02*
X-291556Y109071D01*
X-298806Y83473D02*
X-296669Y91120D01*
X-300087Y78845D02*
X-298806Y83473D01*
X-301366Y74189D02*
X-300087Y78845D01*
X-302217Y71071D02*
X-301366Y74189D01*
X-303067Y67943D02*
X-302217Y71071D01*
X-303915Y64806D02*
X-303067Y67943D01*
X-304761Y61660D02*
X-303915Y64806D01*
X-305604Y58506D02*
X-304761Y61660D01*
X-306445Y55344D02*
X-305604Y58506D01*
X-307282Y52177D02*
X-306445Y55344D01*
X-308117Y49004D02*
X-307282Y52177D01*
X-308947Y45826D02*
X-308117Y49004D01*
X-309774Y42644D02*
X-308947Y45826D01*
X-310596Y39459D02*
X-309774Y42644D01*
X-311006Y37865D02*
X-310596Y39459D01*
X-311414Y36272D02*
X-311006Y37865D01*
X-311821Y34677D02*
X-311414Y36272D01*
X-312227Y33083D02*
X-311821Y34677D01*
X-312632Y31488D02*
X-312227Y33083D01*
X-313035Y29893D02*
X-312632Y31488D01*
X-313436Y28298D02*
X-313035Y29893D01*
X-313837Y26703D02*
X-313436Y28298D01*
X-314236Y25109D02*
X-313837Y26703D01*
X-314633Y23514D02*
X-314236Y25109D01*
X-315029Y21921D02*
X-314633Y23514D01*
X-315423Y20327D02*
X-315029Y21921D01*
X-315815Y18734D02*
X-315423Y20327D01*
X-316206Y17143D02*
X-315815Y18734D01*
X-316596Y15552D02*
X-316206Y17143D01*
X-316983Y13961D02*
X-316596Y15552D01*
X-317369Y12372D02*
X-316983Y13961D01*
X-317752Y10784D02*
X-317369Y12372D01*
X-318134Y9198D02*
X-317752Y10784D01*
X-318514Y7612D02*
X-318134Y9198D01*
X-318892Y6028D02*
X-318514Y7612D01*
X-319268Y4446D02*
X-318892Y6028D01*
X-319642Y2866D02*
X-319268Y4446D01*
X-320014Y1287D02*
X-319642Y2866D01*
X-320383Y-290D02*
X-320014Y1287D01*
X-320751Y-1865D02*
X-320383Y-290D01*
X-321116Y-3438D02*
X-320751Y-1865D01*
X-321479Y-5009D02*
X-321116Y-3438D01*
X-321840Y-6578D02*
X-321479Y-5009D01*
X-322199Y-8144D02*
X-321840Y-6578D01*
X-322554Y-9708D02*
X-322199Y-8144D01*
X-322908Y-11269D02*
X-322554Y-9708D01*
X-323259Y-12827D02*
X-322908Y-11269D01*
X-323608Y-14382D02*
X-323259Y-12827D01*
X-323954Y-15935D02*
X-323608Y-14382D01*
X-324297Y-17485D02*
X-323954Y-15935D01*
X-324638Y-19031D02*
X-324297Y-17485D01*
X-324976Y-20575D02*
X-324638Y-19031D01*
X-325312Y-22115D02*
X-324976Y-20575D01*
X-325645Y-23652D02*
X-325312Y-22115D01*
X-325975Y-25185D02*
X-325645Y-23652D01*
X-326302Y-26715D02*
X-325975Y-25185D01*
X-326626Y-28240D02*
X-326302Y-26715D01*
X-326947Y-29763D02*
X-326626Y-28240D01*
X-327266Y-31281D02*
X-326947Y-29763D01*
X-327581Y-32795D02*
X-327266Y-31281D01*
X-327893Y-34305D02*
X-327581Y-32795D01*
X-328202Y-35811D02*
X-327893Y-34305D01*
X-328508Y-37312D02*
X-328202Y-35811D01*
X-328811Y-38810D02*
X-328508Y-37312D01*
X-329111Y-40302D02*
X-328811Y-38810D01*
X-329408Y-41790D02*
X-329111Y-40302D01*
X-329701Y-43274D02*
X-329408Y-41790D01*
X-329991Y-44752D02*
X-329701Y-43274D01*
X-330277Y-46226D02*
X-329991Y-44752D01*
X-330560Y-47695D02*
X-330277Y-46226D01*
X-330840Y-49159D02*
X-330560Y-47695D01*
X-331116Y-50617D02*
X-330840Y-49159D01*
X-331389Y-52070D02*
X-331116Y-50617D01*
X-331658Y-53518D02*
X-331389Y-52070D01*
X-331923Y-54961D02*
X-331658Y-53518D01*
X-332185Y-56397D02*
X-331923Y-54961D01*
X-332443Y-57829D02*
X-332185Y-56397D01*
X-332698Y-59254D02*
X-332443Y-57829D01*
X-332948Y-60674D02*
X-332698Y-59254D01*
X-333195Y-62088D02*
X-332948Y-60674D01*
X-333439Y-63495D02*
X-333195Y-62088D01*
X-333678Y-64897D02*
X-333439Y-63495D01*
X-333913Y-66293D02*
X-333678Y-64897D01*
X-334145Y-67682D02*
X-333913Y-66293D01*
X-334372Y-69065D02*
X-334145Y-67682D01*
X-334595Y-70441D02*
X-334372Y-69065D01*
X-334815Y-71811D02*
X-334595Y-70441D01*
X-335030Y-73174D02*
X-334815Y-71811D01*
X-335241Y-74530D02*
X-335030Y-73174D01*
X-335448Y-75880D02*
X-335241Y-74530D01*
X-335651Y-77223D02*
X-335448Y-75880D01*
X-335850Y-78559D02*
X-335651Y-77223D01*
X-336044Y-79887D02*
X-335850Y-78559D01*
X-336234Y-81209D02*
X-336044Y-79887D01*
X-336420Y-82524D02*
X-336234Y-81209D01*
X-336601Y-83831D02*
X-336420Y-82524D01*
X-336778Y-85130D02*
X-336601Y-83831D01*
X-336950Y-86422D02*
X-336778Y-85130D01*
X-337118Y-87707D02*
X-336950Y-86422D01*
X-337282Y-88984D02*
X-337118Y-87707D01*
X-337441Y-90254D02*
X-337282Y-88984D01*
X-337595Y-91515D02*
X-337441Y-90254D01*
X-337745Y-92769D02*
X-337595Y-91515D01*
X-337891Y-94015D02*
X-337745Y-92769D01*
X-338031Y-95253D02*
X-337891Y-94015D01*
X-338167Y-96482D02*
X-338031Y-95253D01*
X-338298Y-97704D02*
X-338167Y-96482D01*
X-338424Y-98917D02*
X-338298Y-97704D01*
X-338546Y-100122D02*
X-338424Y-98917D01*
X-338663Y-101319D02*
X-338546Y-100122D01*
X-338775Y-102507D02*
X-338663Y-101319D01*
X-338882Y-103687D02*
X-338775Y-102507D01*
X-338984Y-104858D02*
X-338882Y-103687D01*
X-339081Y-106020D02*
X-338984Y-104858D01*
X-339174Y-107174D02*
X-339081Y-106020D01*
X-339261Y-108319D02*
X-339174Y-107174D01*
X-339344Y-109455D02*
X-339261Y-108319D01*
X-339421Y-110582D02*
X-339344Y-109455D01*
X-339493Y-111701D02*
X-339421Y-110582D01*
X-339560Y-112810D02*
X-339493Y-111701D01*
X-339622Y-113910D02*
X-339560Y-112810D01*
X-339679Y-115001D02*
X-339622Y-113910D01*
X-339731Y-116083D02*
X-339679Y-115001D01*
X-339777Y-117155D02*
X-339731Y-116083D01*
X-339819Y-118218D02*
X-339777Y-117155D01*
X-339855Y-119272D02*
X-339819Y-118218D01*
X-339886Y-120317D02*
X-339855Y-119272D01*
X-339911Y-121351D02*
X-339886Y-120317D01*
X-339932Y-122377D02*
X-339911Y-121351D01*
X-339947Y-123392D02*
X-339932Y-122377D01*
X-339956Y-124399D02*
X-339947Y-123392D01*
X-339960Y-125395D02*
X-339956Y-124399D01*
X-339959Y-126382D02*
Y-126381D01*
X-339953Y-127358D01*
X-339941Y-128325D01*
X-339923Y-129282D01*
X-339900Y-130229D01*
X-339872Y-131167D01*
X-339838Y-132094D01*
X-339799Y-133011D01*
X-339754Y-133918D01*
X-339703Y-134815D01*
X-339648Y-135702D01*
X-339586Y-136578D01*
X-339519Y-137444D01*
X-339446Y-138300D01*
X-339368Y-139146D01*
X-339283Y-139981D01*
X-339194Y-140806D01*
X-339098Y-141621D01*
X-338997Y-142425D01*
X-338891Y-143219D01*
X-338778Y-144002D01*
X-338660Y-144775D01*
X-338537Y-145537D01*
X-338407Y-146289D01*
X-338272Y-147030D01*
X-338131Y-147761D01*
X-337984Y-148481D01*
X-337832Y-149190D01*
X-337673Y-149889D01*
X-337510Y-150577D01*
X-337340Y-151255D01*
X-337164Y-151921D01*
X-336983Y-152578D01*
X-336796Y-153223D01*
X-336604Y-153858D01*
X-336405Y-154483D01*
X-336201Y-155096D01*
X-335991Y-155699D01*
X-335775Y-156292D01*
X-335554Y-156873D01*
X-335326Y-157444D01*
X-335093Y-158005D01*
X-334855Y-158555D01*
X-334610Y-159094D01*
X-334360Y-159622D01*
X-334104Y-160140D01*
X-333842Y-160648D01*
M02*
