G04*
G04 #@! TF.GenerationSoftware,Altium Limited,Altium Designer,21.1.1 (26)*
G04*
G04 Layer_Color=32896*
%FSLAX25Y25*%
%MOIN*%
G70*
G04*
G04 #@! TF.SameCoordinates,2E0BF697-75A6-4CC4-BED8-DE0F4DE65696*
G04*
G04*
G04 #@! TF.FilePolarity,Positive*
G04*
G01*
G75*
%ADD12C,0.01000*%
D12*
X-31222Y82589D02*
X-33221D01*
X-32221D01*
Y77590D01*
X-33221Y76591D01*
X-34221D01*
X-35221Y77590D01*
X-29222Y82589D02*
Y76591D01*
X-25224D01*
X-19226Y81589D02*
X-20225Y82589D01*
X-22225D01*
X-23224Y81589D01*
Y77590D01*
X-22225Y76591D01*
X-20225D01*
X-19226Y77590D01*
X-13228Y82589D02*
X-15227D01*
X-14227D01*
Y77590D01*
X-15227Y76591D01*
X-16227D01*
X-17226Y77590D01*
X-11228Y82589D02*
Y76591D01*
X-7230D01*
X-1232Y81589D02*
X-2231Y82589D01*
X-4231D01*
X-5230Y81589D01*
Y77590D01*
X-4231Y76591D01*
X-2231D01*
X-1232Y77590D01*
X4767Y82589D02*
X2767D01*
X3767D01*
Y77590D01*
X2767Y76591D01*
X1768D01*
X768Y77590D01*
X6766Y82589D02*
Y76591D01*
X10765D01*
X16763Y81589D02*
X15763Y82589D01*
X13764D01*
X12764Y81589D01*
Y77590D01*
X13764Y76591D01*
X15763D01*
X16763Y77590D01*
X22761Y82589D02*
X20761D01*
X21761D01*
Y77590D01*
X20761Y76591D01*
X19762D01*
X18762Y77590D01*
X24760Y82589D02*
Y76591D01*
X28759D01*
X34757Y81589D02*
X33757Y82589D01*
X31758D01*
X30758Y81589D01*
Y77590D01*
X31758Y76591D01*
X33757D01*
X34757Y77590D01*
M02*
